<svg width="350" height="206" viewBox="0 0 350 206" fill="none" xmlns="http://www.w3.org/2000/svg">
<g filter="url(#filter0_b_5234_4843)">
<g clip-path="url(#clip0_5234_4843)">
<g filter="url(#filter1_d_5234_4843)">
<rect width="350" height="205.333" rx="15" fill="url(#paint0_linear_5234_4843)"/>
</g>
<path d="M-18.6667 -21H369.833V225.167H-18.6667V-21Z" fill="black" fill-opacity="0.2"/>
<path d="M34.824 50.824H55.112V53.224H34.824V50.824ZM34.664 40.968H55.144V43.336H34.664V40.968ZM33.576 31.272H56.424V55.432H53.928V33.672H35.976V55.56H33.576V31.272ZM43.24 26.024L46.216 26.568C45.32 28.744 44.264 31.144 43.368 32.744L41.032 32.2C41.832 30.472 42.792 27.88 43.24 26.024ZM76.872 28.456C74.216 32.264 69.064 36.68 63.656 39.56C63.368 38.984 62.696 38.152 62.184 37.64C67.72 34.856 73.032 30.12 75.496 26.088H77.96C81.352 30.728 86.888 35.016 91.912 37.256C91.336 37.832 90.76 38.664 90.344 39.368C85.384 36.808 79.816 32.424 76.872 28.456ZM68.936 35.88H85V38.056H68.936V35.88ZM64.808 42.312H89.16V44.456H64.808V42.312ZM63.336 52.424H90.696V54.536H63.336V52.424ZM75.592 36.712H78.12V53.544H75.592V36.712ZM67.464 46.088L69.416 45.288C70.728 47.048 72.04 49.48 72.488 51.08L70.408 51.976C69.992 50.376 68.744 47.88 67.464 46.088ZM84.2 45.224L86.472 46.152C85.256 48.168 83.752 50.472 82.568 51.976L80.744 51.176C81.896 49.608 83.4 47.048 84.2 45.224ZM100.264 37.064V41.896H117.832V37.064H100.264ZM98.216 35.432H120.008V43.528H98.216V35.432ZM103.464 31.976H114.632V33.672H103.464V31.976ZM107.848 35.944H109.896V42.632H107.848V35.944ZM108.84 28.072C105.992 30.984 100.648 34.248 95.336 36.232C95.048 35.688 94.504 34.856 94.056 34.344C99.496 32.488 104.904 29.224 107.56 26.12H109.832C113.448 29.608 119.016 32.552 123.976 34.024C123.464 34.536 122.92 35.4 122.568 36.008C117.864 34.376 112.104 31.208 108.84 28.072ZM102.216 38.024L103.944 37.448C104.776 38.568 105.544 40.072 105.864 41.096L104.008 41.768C103.752 40.744 103.016 39.176 102.216 38.024ZM113.736 37.32L115.784 37.96C115.048 39.336 114.248 40.808 113.608 41.768L111.912 41.192C112.52 40.104 113.352 38.408 113.736 37.32ZM100.104 45.064H118.184V55.528H115.752V46.76H102.472V55.56H100.104V45.064ZM101.512 48.904H116.808V50.664H101.512V48.904ZM101.512 52.84H116.808V54.568H101.512V52.84ZM133.448 29.32V32.616H148.648V29.32H133.448ZM131.048 27.368H151.176V34.6H131.048V27.368ZM132.072 42.184V44.456H149.992V42.184H132.072ZM132.072 46.152V48.456H149.992V46.152H132.072ZM132.072 38.248V40.488H149.992V38.248H132.072ZM129.672 36.456H152.456V50.216H129.672V36.456ZM135.784 50.184L138.024 51.656C135.464 53.224 131.304 54.76 128.008 55.592C127.592 55.08 126.792 54.312 126.216 53.832C129.576 53.032 133.768 51.496 135.784 50.184ZM143.592 51.848L145.672 50.28C149 51.272 153.288 52.84 155.784 53.896L153.704 55.624C151.336 54.504 146.984 52.84 143.592 51.848ZM36.328 95.68H37.56V105.28H36.328V95.68ZM32.696 98.384V99.776H41.4V98.384H32.696ZM32.696 96.096V97.456H41.4V96.096H32.696ZM31.528 95.12H42.616V100.736H31.528V95.12ZM29.912 101.968H44.104V103.024H29.912V101.968ZM32.184 92V93.52H35.256V92H32.184ZM31.096 91.2H36.376V94.32H31.096V91.2ZM38.76 92V93.52H41.864V92H38.76ZM37.672 91.2H43V94.32H37.672V91.2ZM45.784 96.864H60.232V97.792H45.784V96.864ZM47.08 100.688H58.936V101.616H47.08V100.688ZM46.056 102.624H59.976V103.584H46.056V102.624ZM47.704 95.008H58.52V99.744H47.576V98.832H57.288V95.92H47.704V95.008ZM52.328 94.128H53.56V105.28H52.328V94.128ZM47.8 91.936H52.856V92.864H47.8V91.936ZM53.8 91.936H60.088V92.864H53.8V91.936ZM48.2 90.544L49.304 90.864C48.664 92.336 47.64 93.84 46.712 94.8C46.472 94.608 45.992 94.304 45.704 94.144C46.712 93.248 47.64 91.888 48.2 90.544ZM54.232 90.544L55.352 90.832C54.696 92.288 53.56 93.632 52.44 94.496C52.216 94.304 51.72 94 51.432 93.888C52.6 93.088 53.656 91.872 54.232 90.544ZM48.728 92.72L49.736 92.432C50.152 92.976 50.616 93.744 50.824 94.24L49.784 94.576C49.592 94.08 49.16 93.296 48.728 92.72ZM54.936 92.688L55.912 92.288C56.44 92.832 57.032 93.6 57.288 94.112L56.28 94.56C56.024 94.032 55.464 93.232 54.936 92.688ZM67.832 97.968H74.68V99.024H67.832V97.968ZM67.8 100.752H74.68V101.792H67.8V100.752ZM74.792 91.008L75.96 91.472C75.384 92.528 74.696 93.696 74.12 94.496L73.112 94.064C73.672 93.248 74.408 91.952 74.792 91.008ZM66.616 91.552L67.624 91.104C68.312 92 69.032 93.232 69.304 94.048L68.232 94.576C67.976 93.744 67.288 92.496 66.616 91.552ZM67.064 95.136H74.744V96.256H68.248V105.28H67.064V95.136ZM74.152 95.136H75.32V103.776C75.32 104.448 75.176 104.8 74.696 105.008C74.216 105.2 73.416 105.2 72.2 105.2C72.136 104.88 71.96 104.384 71.8 104.048C72.728 104.08 73.576 104.08 73.816 104.08C74.072 104.064 74.152 103.984 74.152 103.776V95.136ZM70.648 90.56H71.848V95.84H70.648V90.56ZM62.36 91.568L63.064 90.736C64.056 91.232 65.256 92 65.848 92.592L65.112 93.52C64.552 92.928 63.352 92.096 62.36 91.568ZM61.608 95.84L62.296 94.992C63.288 95.472 64.536 96.24 65.16 96.816L64.44 97.76C63.832 97.184 62.616 96.368 61.608 95.84ZM62.104 104.352C62.888 103.104 63.992 100.992 64.824 99.152L65.72 99.872C64.984 101.584 63.992 103.6 63.144 105.12L62.104 104.352ZM79.8 93.152H89.848V92.256H78.712V91.456H90.968V93.968H79.8V93.152ZM79.432 93.152H80.568C80.264 94.08 79.896 95.136 79.608 95.84L78.504 95.76C78.824 95.04 79.176 94.016 79.432 93.152ZM79.368 94.816H91.224V95.632H79.112L79.368 94.816ZM90.84 94.816H91.976C91.976 94.816 91.96 95.072 91.944 95.216C91.848 96.192 91.736 96.672 91.48 96.928C91.288 97.12 91.016 97.2 90.696 97.216C90.424 97.232 89.864 97.232 89.288 97.184C89.272 96.96 89.176 96.608 89.064 96.384C89.56 96.432 89.992 96.448 90.168 96.448C90.36 96.448 90.456 96.432 90.536 96.352C90.664 96.224 90.744 95.856 90.84 94.976V94.816ZM82.648 90.576H83.752V93.456C83.752 95.568 83.096 97.248 78.456 98.144C78.36 97.872 78.104 97.424 77.896 97.216C82.12 96.416 82.648 95.072 82.648 93.424V90.576ZM86.232 90.576H87.368V96.832H86.232V90.576ZM81.064 99.376V100.368H89.112V99.376H81.064ZM81.064 101.12V102.128H89.112V101.12H81.064ZM81.064 97.648V98.624H89.112V97.648H81.064ZM79.896 96.864H90.312V102.896H79.896V96.864ZM86.296 103.696L87.24 103.072C89.032 103.552 90.984 104.192 92.152 104.672L90.856 105.312C89.832 104.832 88.072 104.224 86.296 103.696ZM82.6 103.056L83.672 103.536C82.376 104.256 80.328 104.944 78.728 105.344C78.536 105.104 78.12 104.656 77.848 104.448C79.512 104.128 81.448 103.632 82.6 103.056ZM97.528 92.08H108.296V93.152H97.528V92.08ZM99.544 98.64H100.808V99.456H99.544V98.64ZM102.216 95.296H103.304V105.104H102.216V95.296ZM106.712 96.688H107.8V104.096C107.8 104.656 107.688 104.928 107.304 105.088C106.92 105.248 106.264 105.248 105.272 105.248C105.224 104.976 105.096 104.608 104.968 104.336C105.656 104.352 106.296 104.352 106.472 104.336C106.664 104.336 106.712 104.288 106.712 104.096V96.688ZM97.896 96.688H107.256V97.728H98.936V105.264H97.896V96.688ZM94.296 91.6L94.984 90.736C95.88 91.152 96.984 91.84 97.528 92.352L96.808 93.328C96.296 92.784 95.192 92.048 94.296 91.6ZM93.592 95.904L94.264 95.024C95.208 95.392 96.36 96.016 96.92 96.512L96.232 97.488C95.672 96.992 94.536 96.32 93.592 95.904ZM93.928 104.448C94.584 103.216 95.496 101.12 96.152 99.328L97.112 99.968C96.504 101.632 95.704 103.6 95 105.088L93.928 104.448ZM99.928 90.56H101.08V94.512H104.552V90.56H105.72V95.552H99.928V90.56ZM100.248 98.64H101.08C101.16 100.464 101.576 101.904 102.312 102.592C102.152 102.688 101.864 102.944 101.752 103.136C100.968 102.352 100.536 100.896 100.44 99.056H100.248V98.64ZM100.264 100.064H100.984C100.84 101.296 100.408 102.512 99.528 103.264C99.416 103.088 99.176 102.848 99 102.736C99.768 102.128 100.152 101.056 100.264 100.064ZM103.896 98.64H105.112V99.456H103.896V98.64ZM104.568 98.64H105.416C105.496 100.464 105.976 101.888 106.776 102.528C106.6 102.656 106.328 102.912 106.184 103.104C105.368 102.32 104.872 100.896 104.776 99.056H104.568V98.64ZM104.6 100.064H105.352C105.192 101.264 104.76 102.416 103.848 103.136C103.736 102.976 103.496 102.72 103.304 102.624C104.104 102.048 104.488 101.008 104.6 100.064ZM113.048 103.264C112.429 103.243 111.843 103.184 111.288 103.088C110.744 102.992 110.285 102.859 109.912 102.688V101.12C110.296 101.301 110.776 101.467 111.352 101.616C111.939 101.755 112.504 101.829 113.048 101.84V98.848C112.493 98.6773 112.013 98.496 111.608 98.304C111.213 98.112 110.888 97.904 110.632 97.68C110.387 97.4453 110.2 97.1787 110.072 96.88C109.955 96.5813 109.896 96.24 109.896 95.856C109.896 95.3333 110.024 94.8853 110.28 94.512C110.547 94.128 110.915 93.824 111.384 93.6C111.864 93.376 112.419 93.2427 113.048 93.2V91.856H114.088V93.184C114.664 93.1947 115.192 93.2587 115.672 93.376C116.152 93.4827 116.605 93.6267 117.032 93.808L116.504 95.184C116.141 95.0347 115.747 94.912 115.32 94.816C114.904 94.7093 114.493 94.64 114.088 94.608V97.552C114.749 97.7653 115.32 97.9893 115.8 98.224C116.291 98.4587 116.669 98.752 116.936 99.104C117.203 99.4453 117.336 99.8987 117.336 100.464C117.336 101.221 117.053 101.84 116.488 102.32C115.933 102.8 115.133 103.093 114.088 103.2V104.928H113.048V103.264ZM114.088 101.776C114.643 101.712 115.043 101.579 115.288 101.376C115.544 101.163 115.672 100.891 115.672 100.56C115.672 100.336 115.619 100.144 115.512 99.984C115.416 99.824 115.251 99.6853 115.016 99.568C114.792 99.4507 114.483 99.3333 114.088 99.216V101.776ZM113.048 94.64C112.717 94.6613 112.44 94.7253 112.216 94.832C112.003 94.928 111.837 95.056 111.72 95.216C111.613 95.376 111.56 95.5627 111.56 95.776C111.56 96.0107 111.608 96.2187 111.704 96.4C111.8 96.5707 111.955 96.72 112.168 96.848C112.381 96.9653 112.675 97.0773 113.048 97.184V94.64ZM118.94 99.136C118.94 98.4747 118.983 97.824 119.068 97.184C119.164 96.544 119.324 95.9413 119.548 95.376C119.783 94.8 120.103 94.2933 120.508 93.856C120.914 93.408 121.426 93.0613 122.044 92.816C122.674 92.56 123.431 92.432 124.316 92.432C124.54 92.432 124.791 92.4427 125.068 92.464C125.356 92.4747 125.591 92.5067 125.772 92.56V93.984C125.57 93.92 125.346 93.872 125.1 93.84C124.866 93.808 124.631 93.792 124.396 93.792C123.66 93.792 123.052 93.904 122.572 94.128C122.092 94.352 121.714 94.6613 121.436 95.056C121.159 95.4507 120.956 95.9093 120.828 96.432C120.7 96.944 120.62 97.504 120.588 98.112H120.684C120.844 97.856 121.042 97.6267 121.276 97.424C121.511 97.2213 121.799 97.0613 122.14 96.944C122.482 96.8267 122.876 96.768 123.324 96.768C123.986 96.768 124.562 96.9067 125.052 97.184C125.554 97.4613 125.938 97.8613 126.204 98.384C126.482 98.9067 126.62 99.5413 126.62 100.288C126.62 101.088 126.466 101.781 126.156 102.368C125.858 102.944 125.431 103.387 124.876 103.696C124.332 104.005 123.676 104.16 122.908 104.16C122.354 104.16 121.836 104.059 121.356 103.856C120.876 103.653 120.455 103.344 120.092 102.928C119.73 102.512 119.447 101.989 119.244 101.36C119.042 100.72 118.94 99.9787 118.94 99.136ZM122.892 102.752C123.5 102.752 123.996 102.555 124.38 102.16C124.764 101.755 124.956 101.131 124.956 100.288C124.956 99.616 124.786 99.0827 124.444 98.688C124.114 98.2933 123.612 98.096 122.94 98.096C122.482 98.096 122.082 98.192 121.74 98.384C121.399 98.576 121.132 98.8213 120.94 99.12C120.748 99.4187 120.652 99.7227 120.652 100.032C120.652 100.363 120.7 100.688 120.796 101.008C120.892 101.328 121.031 101.621 121.212 101.888C121.404 102.155 121.639 102.368 121.916 102.528C122.194 102.677 122.519 102.752 122.892 102.752ZM130.529 102.32C130.433 102.693 130.31 103.099 130.161 103.536C130.011 103.973 129.851 104.405 129.681 104.832C129.51 105.269 129.334 105.68 129.153 106.064H127.921C128.027 105.648 128.129 105.205 128.225 104.736C128.331 104.277 128.427 103.824 128.513 103.376C128.598 102.928 128.667 102.517 128.721 102.144H130.417L130.529 102.32ZM140.12 98.272C140.12 99.2 140.045 100.027 139.896 100.752C139.757 101.477 139.533 102.096 139.224 102.608C138.925 103.109 138.525 103.493 138.024 103.76C137.533 104.027 136.941 104.16 136.248 104.16C135.373 104.16 134.653 103.925 134.088 103.456C133.522 102.987 133.101 102.315 132.824 101.44C132.546 100.555 132.408 99.4987 132.408 98.272C132.408 97.0347 132.53 95.9787 132.776 95.104C133.032 94.2293 133.442 93.5627 134.008 93.104C134.573 92.6347 135.32 92.4 136.248 92.4C137.122 92.4 137.842 92.6347 138.408 93.104C138.984 93.5627 139.41 94.2293 139.688 95.104C139.976 95.9787 140.12 97.0347 140.12 98.272ZM134.104 98.272C134.104 99.264 134.173 100.091 134.312 100.752C134.45 101.413 134.674 101.909 134.984 102.24C135.304 102.571 135.725 102.736 136.248 102.736C136.77 102.736 137.186 102.576 137.496 102.256C137.816 101.925 138.045 101.429 138.184 100.768C138.333 100.096 138.408 99.264 138.408 98.272C138.408 97.28 138.333 96.4587 138.184 95.808C138.045 95.1467 137.816 94.6507 137.496 94.32C137.186 93.9893 136.77 93.824 136.248 93.824C135.725 93.824 135.304 93.9893 134.984 94.32C134.674 94.6507 134.45 95.1467 134.312 95.808C134.173 96.4587 134.104 97.28 134.104 98.272ZM149.276 98.272C149.276 99.2 149.201 100.027 149.052 100.752C148.913 101.477 148.689 102.096 148.38 102.608C148.081 103.109 147.681 103.493 147.18 103.76C146.689 104.027 146.097 104.16 145.404 104.16C144.529 104.16 143.809 103.925 143.244 103.456C142.678 102.987 142.257 102.315 141.98 101.44C141.702 100.555 141.564 99.4987 141.564 98.272C141.564 97.0347 141.686 95.9787 141.932 95.104C142.188 94.2293 142.598 93.5627 143.164 93.104C143.729 92.6347 144.476 92.4 145.404 92.4C146.278 92.4 146.998 92.6347 147.564 93.104C148.14 93.5627 148.566 94.2293 148.844 95.104C149.132 95.9787 149.276 97.0347 149.276 98.272ZM143.26 98.272C143.26 99.264 143.329 100.091 143.468 100.752C143.606 101.413 143.83 101.909 144.14 102.24C144.46 102.571 144.881 102.736 145.404 102.736C145.926 102.736 146.342 102.576 146.652 102.256C146.972 101.925 147.201 101.429 147.34 100.768C147.489 100.096 147.564 99.264 147.564 98.272C147.564 97.28 147.489 96.4587 147.34 95.808C147.201 95.1467 146.972 94.6507 146.652 94.32C146.342 93.9893 145.926 93.824 145.404 93.824C144.881 93.824 144.46 93.9893 144.14 94.32C143.83 94.6507 143.606 95.1467 143.468 95.808C143.329 96.4587 143.26 97.28 143.26 98.272ZM158.432 98.272C158.432 99.2 158.357 100.027 158.208 100.752C158.069 101.477 157.845 102.096 157.536 102.608C157.237 103.109 156.837 103.493 156.336 103.76C155.845 104.027 155.253 104.16 154.56 104.16C153.685 104.16 152.965 103.925 152.4 103.456C151.835 102.987 151.413 102.315 151.136 101.44C150.859 100.555 150.72 99.4987 150.72 98.272C150.72 97.0347 150.843 95.9787 151.088 95.104C151.344 94.2293 151.755 93.5627 152.32 93.104C152.885 92.6347 153.632 92.4 154.56 92.4C155.435 92.4 156.155 92.6347 156.72 93.104C157.296 93.5627 157.723 94.2293 158 95.104C158.288 95.9787 158.432 97.0347 158.432 98.272ZM152.416 98.272C152.416 99.264 152.485 100.091 152.624 100.752C152.763 101.413 152.987 101.909 153.296 102.24C153.616 102.571 154.037 102.736 154.56 102.736C155.083 102.736 155.499 102.576 155.808 102.256C156.128 101.925 156.357 101.429 156.496 100.768C156.645 100.096 156.72 99.264 156.72 98.272C156.72 97.28 156.645 96.4587 156.496 95.808C156.357 95.1467 156.128 94.6507 155.808 94.32C155.499 93.9893 155.083 93.824 154.56 93.824C154.037 93.824 153.616 93.9893 153.296 94.32C152.987 94.6507 152.763 95.1467 152.624 95.808C152.485 96.4587 152.416 97.28 152.416 98.272ZM168.468 97.024H169.7V103.2C169.7 103.76 169.828 103.856 170.452 103.856C170.74 103.856 172.132 103.856 172.532 103.856C173.188 103.856 173.284 103.44 173.348 100.976C173.62 101.2 174.148 101.408 174.468 101.504C174.34 104.256 174.02 105.008 172.612 105.008C172.292 105.008 170.612 105.008 170.308 105.008C168.852 105.008 168.468 104.592 168.468 103.2V97.024ZM160.1 96.304H174.228V97.472H160.1V96.304ZM161.492 91.808H172.868V92.976H161.492V91.808ZM164.196 97.2H165.46C165.188 100.784 164.484 103.728 160.66 105.248C160.532 104.96 160.18 104.528 159.908 104.304C163.444 102.976 163.956 100.32 164.196 97.2ZM177.668 105.712L177.3 104.88C178.612 104.336 179.332 103.52 179.332 102.32L179.028 100.96L179.892 102.176C179.668 102.464 179.348 102.544 179.044 102.544C178.388 102.544 177.844 102.16 177.844 101.392C177.844 100.64 178.42 100.24 179.06 100.24C179.956 100.24 180.436 100.976 180.436 102.096C180.436 103.824 179.348 105.136 177.668 105.712ZM193.476 94.576H198.18V95.664H193.476V94.576ZM192.9 91.424H194.036V103.376L192.9 103.616V91.424ZM191.78 103.248C193.252 102.88 195.588 102.224 197.844 101.584L197.988 102.72C195.956 103.344 193.764 104 192.18 104.464L191.78 103.248ZM195.828 99.984L196.788 99.504C197.876 100.88 199.012 102.72 199.46 103.92L198.404 104.48C197.988 103.264 196.868 101.376 195.828 99.984ZM193.444 91.424H198.852V98.752H193.444V97.632H197.732V92.544H193.444V91.424ZM204.66 91.44H205.892V101.2C205.892 101.888 205.764 102.304 205.268 102.528C204.804 102.768 204.036 102.784 202.916 102.784C202.884 102.416 202.692 101.824 202.484 101.472C203.348 101.504 204.116 101.488 204.372 101.488C204.596 101.488 204.66 101.408 204.66 101.184V91.44ZM200.068 91.44H205.332V92.64H201.284V105.296H200.068V91.44ZM219.092 92.064H220.34V103.568C220.34 104.432 220.132 104.848 219.508 105.04C218.868 105.248 217.748 105.264 216.164 105.264C216.084 104.912 215.844 104.32 215.652 103.968C216.948 104.032 218.244 104.016 218.628 104C218.98 103.984 219.092 103.872 219.092 103.536V92.064ZM209.684 95.264H210.852V102.512H209.684V95.264ZM210.18 95.264H216.244V101.232H210.18V100.08H215.044V96.4H210.18V95.264ZM208.036 91.696H222.308V92.912H208.036V91.696ZM225.876 96.56H229.86V97.68H225.876V96.56ZM229.38 96.56H230.548C230.548 96.56 230.548 96.912 230.548 97.072C230.468 100.688 230.372 102.032 230.036 102.48C229.78 102.768 229.524 102.88 229.076 102.928C228.66 102.976 227.94 102.96 227.156 102.928C227.124 102.576 226.996 102.112 226.82 101.808C227.54 101.872 228.244 101.872 228.516 101.872C228.74 101.872 228.9 101.856 229.012 101.712C229.252 101.424 229.332 100.224 229.38 96.768V96.56ZM233.892 91.376L234.612 90.624C235.604 91.136 236.868 91.904 237.492 92.464L236.74 93.28C236.132 92.72 234.9 91.904 233.892 91.376ZM236.18 95.712L237.38 96C236.02 100.176 233.636 103.264 230.356 105.2C230.18 104.96 229.732 104.464 229.476 104.224C232.724 102.496 234.98 99.568 236.18 95.712ZM225.972 93.28H238.356V94.464H225.972V93.28ZM225.204 93.28H226.452V97.792C226.452 100.064 226.196 103.296 224.74 105.392C224.532 105.152 224.02 104.736 223.732 104.592C225.06 102.624 225.204 99.872 225.204 97.776V93.28ZM231.844 90.592H233.092C233.06 97.952 234.628 103.952 236.708 103.952C237.156 103.952 237.364 103.12 237.46 100.992C237.732 101.264 238.18 101.536 238.5 101.648C238.276 104.384 237.828 105.168 236.612 105.168C233.348 105.168 231.908 98.256 231.844 90.592ZM242.516 99.088H253.412V100.144H242.516V99.088ZM240.452 93.312H250.916V94.416H240.452V93.312ZM244.964 96.192H252.292V97.264H244.964V96.192ZM252.9 99.088H254.1C254.1 99.088 254.084 99.44 254.052 99.616C253.764 102.992 253.46 104.32 252.948 104.848C252.644 105.152 252.34 105.264 251.86 105.296C251.46 105.328 250.66 105.312 249.828 105.28C249.812 104.944 249.684 104.48 249.492 104.16C250.292 104.256 251.06 104.256 251.364 104.256C251.668 104.256 251.828 104.224 251.972 104.096C252.34 103.728 252.644 102.464 252.9 99.28V99.088ZM249.348 101.008L250.196 100.688C250.708 101.344 251.204 102.24 251.412 102.816L250.532 103.184C250.324 102.608 249.828 101.68 249.348 101.008ZM242.436 91.04L243.476 90.608C244.1 91.248 244.804 92.16 245.124 92.768L244.004 93.28C243.732 92.656 243.06 91.712 242.436 91.04ZM244.612 101.408L245.588 101.28C245.908 102.288 246.084 103.616 246.084 104.48L245.028 104.624C245.06 103.76 244.884 102.448 244.612 101.408ZM246.964 101.264L247.908 101.04C248.324 101.92 248.724 103.056 248.852 103.808L247.86 104.08C247.748 103.312 247.364 102.144 246.964 101.264ZM242.564 101.04L243.572 101.376C243.204 102.704 242.644 104.224 241.668 105.2L240.74 104.544C241.636 103.696 242.244 102.272 242.564 101.04ZM247.284 90.56L248.5 90.864C247.044 95.344 244.532 99.568 240.292 102.08C240.148 101.792 239.844 101.312 239.636 101.056C243.604 98.8 246.068 94.704 247.284 90.56ZM250.644 93.312H251.78C251.556 94.416 251.268 95.744 251.028 96.608L249.972 96.464C250.196 95.616 250.468 94.336 250.644 93.312ZM251.844 96.192H252.98C252.756 97.296 252.484 98.64 252.26 99.504L251.172 99.376C251.412 98.512 251.684 97.216 251.844 96.192ZM258.068 102.912H268.212V104.112H258.068V102.912ZM257.988 97.984H268.228V99.168H257.988V97.984ZM257.444 93.136H268.868V105.216H267.62V94.336H258.644V105.28H257.444V93.136ZM262.276 90.512L263.764 90.784C263.316 91.872 262.788 93.072 262.34 93.872L261.172 93.6C261.572 92.736 262.052 91.44 262.276 90.512ZM36.936 114.728C35.608 116.632 33.032 118.84 30.328 120.28C30.184 119.992 29.848 119.576 29.592 119.32C32.36 117.928 35.016 115.56 36.248 113.544H37.48C39.176 115.864 41.944 118.008 44.456 119.128C44.168 119.416 43.88 119.832 43.672 120.184C41.192 118.904 38.408 116.712 36.936 114.728ZM32.968 118.44H41V119.528H32.968V118.44ZM30.904 121.656H43.08V122.728H30.904V121.656ZM30.168 126.712H43.848V127.768H30.168V126.712ZM36.296 118.856H37.56V127.272H36.296V118.856ZM32.232 123.544L33.208 123.144C33.864 124.024 34.52 125.24 34.744 126.04L33.704 126.488C33.496 125.688 32.872 124.44 32.232 123.544ZM40.6 123.112L41.736 123.576C41.128 124.584 40.376 125.736 39.784 126.488L38.872 126.088C39.448 125.304 40.2 124.024 40.6 123.112ZM48.632 119.032V121.448H57.416V119.032H48.632ZM47.608 118.216H58.504V122.264H47.608V118.216ZM50.232 116.488H55.816V117.336H50.232V116.488ZM52.424 118.472H53.448V121.816H52.424V118.472ZM52.92 114.536C51.496 115.992 48.824 117.624 46.168 118.616C46.024 118.344 45.752 117.928 45.528 117.672C48.248 116.744 50.952 115.112 52.28 113.56H53.416C55.224 115.304 58.008 116.776 60.488 117.512C60.232 117.768 59.96 118.2 59.784 118.504C57.432 117.688 54.552 116.104 52.92 114.536ZM49.608 119.512L50.472 119.224C50.888 119.784 51.272 120.536 51.432 121.048L50.504 121.384C50.376 120.872 50.008 120.088 49.608 119.512ZM55.368 119.16L56.392 119.48C56.024 120.168 55.624 120.904 55.304 121.384L54.456 121.096C54.76 120.552 55.176 119.704 55.368 119.16ZM48.552 123.032H57.592V128.264H56.376V123.88H49.736V128.28H48.552V123.032ZM49.256 124.952H56.904V125.832H49.256V124.952ZM49.256 126.92H56.904V127.784H49.256V126.92ZM65.224 115.16V116.808H72.824V115.16H65.224ZM64.024 114.184H74.088V117.8H64.024V114.184ZM64.536 121.592V122.728H73.496V121.592H64.536ZM64.536 123.576V124.728H73.496V123.576H64.536ZM64.536 119.624V120.744H73.496V119.624H64.536ZM63.336 118.728H74.728V125.608H63.336V118.728ZM66.392 125.592L67.512 126.328C66.232 127.112 64.152 127.88 62.504 128.296C62.296 128.04 61.896 127.656 61.608 127.416C63.288 127.016 65.384 126.248 66.392 125.592ZM70.296 126.424L71.336 125.64C73 126.136 75.144 126.92 76.392 127.448L75.352 128.312C74.168 127.752 71.992 126.92 70.296 126.424ZM79.512 128.712L79.144 127.88C80.456 127.336 81.176 126.52 81.176 125.32L80.872 123.96L81.736 125.176C81.512 125.464 81.192 125.544 80.888 125.544C80.232 125.544 79.688 125.16 79.688 124.392C79.688 123.64 80.264 123.24 80.904 123.24C81.8 123.24 82.28 123.976 82.28 125.096C82.28 126.824 81.192 128.136 79.512 128.712ZM96.632 114.536H101.16V115.752H96.632V114.536ZM100.552 114.536H101.784C101.784 117.4 102.136 123.48 108.456 127.224C108.184 127.432 107.704 127.944 107.48 128.232C101.08 124.36 100.552 117.544 100.552 114.536ZM100.104 117.672L101.464 117.928C100.312 122.808 98.2 126.184 94.664 128.264C94.44 128.008 93.896 127.512 93.576 127.288C97.128 125.432 99.128 122.2 100.104 117.672ZM112.632 119.032V121.448H121.416V119.032H112.632ZM111.608 118.216H122.504V122.264H111.608V118.216ZM114.232 116.488H119.816V117.336H114.232V116.488ZM116.424 118.472H117.448V121.816H116.424V118.472ZM116.92 114.536C115.496 115.992 112.824 117.624 110.168 118.616C110.024 118.344 109.752 117.928 109.528 117.672C112.248 116.744 114.952 115.112 116.28 113.56H117.416C119.224 115.304 122.008 116.776 124.488 117.512C124.232 117.768 123.96 118.2 123.784 118.504C121.432 117.688 118.552 116.104 116.92 114.536ZM113.608 119.512L114.472 119.224C114.888 119.784 115.272 120.536 115.432 121.048L114.504 121.384C114.376 120.872 114.008 120.088 113.608 119.512ZM119.368 119.16L120.392 119.48C120.024 120.168 119.624 120.904 119.304 121.384L118.456 121.096C118.76 120.552 119.176 119.704 119.368 119.16ZM112.552 123.032H121.592V128.264H120.376V123.88H113.736V128.28H112.552V123.032ZM113.256 124.952H120.904V125.832H113.256V124.952ZM113.256 126.92H120.904V127.784H113.256V126.92ZM133.208 125.128L134.152 124.872C134.504 125.48 134.776 126.28 134.856 126.792L133.864 127.096C133.784 126.552 133.512 125.72 133.208 125.128ZM137.48 124.84L138.536 125.144C138.216 125.848 137.864 126.584 137.592 127.096L136.68 126.824C136.952 126.28 137.304 125.416 137.48 124.84ZM133.4 122.696V123.976H138.264V122.696H133.4ZM132.376 121.896H139.32V124.776H132.376V121.896ZM132.856 117.416V118.552H138.76V117.416H132.856ZM132.856 115.512V116.632H138.76V115.512H132.856ZM131.848 114.68H139.816V119.384H131.848V114.68ZM131.464 120.136H140.184V121.096H131.464V120.136ZM131.176 127H140.376V127.928H131.176V127ZM134.104 113.56H135.064V115.256H134.104V113.56ZM136.472 113.56H137.432V115.256H136.472V113.56ZM134.248 115.096H135.048V119.144H134.248V115.096ZM136.472 115.096H137.272V119.144H136.472V115.096ZM125.784 117.832H131.096V118.904H125.784V117.832ZM126.184 114.616H130.728V115.688H126.184V114.616ZM130.104 120.04H130.952V125.96H130.104V120.04ZM128.008 118.296H129.032V128.28H128.008V118.296ZM126.088 120.056H126.936V121.976C126.936 123.624 126.84 125.48 126.28 126.984C126.12 126.792 125.768 126.536 125.544 126.424C126.008 125.096 126.088 123.4 126.088 121.944V120.056ZM142.52 114.888H152.76V116.12H142.52V114.888ZM152.6 114.888H152.824L153.112 114.808L153.96 115.416C153.896 115.48 153.832 115.544 153.72 115.592C144.264 123.272 143.72 124.456 143.72 125.304C143.72 126.072 144.536 126.408 145.752 126.408H153.224C154.376 126.408 154.664 125.832 154.776 123.096C155.112 123.288 155.64 123.464 156.008 123.544C155.8 126.888 155.128 127.64 153.112 127.64H145.912C143.56 127.64 142.424 126.808 142.424 125.4C142.424 124.136 142.888 122.84 152.6 114.888ZM163.128 119.96H169.864V121.064H163.128V119.96ZM165.064 114.008H169V115.096H165.064V114.008ZM168.104 114.008H169.432C169.896 116.424 171.064 118.616 172.6 119.72C172.328 119.928 171.912 120.408 171.704 120.696C170.104 119.4 168.904 117.128 168.392 114.632H168.104V114.008ZM169.368 119.96H170.584C170.584 119.96 170.584 120.344 170.568 120.52C170.424 125.352 170.296 127.032 169.88 127.576C169.608 127.944 169.32 128.072 168.856 128.12C168.456 128.152 167.752 128.152 167.032 128.12C167 127.752 166.872 127.24 166.696 126.92C167.384 126.984 168.04 126.984 168.296 126.984C168.552 126.984 168.68 126.952 168.808 126.792C169.112 126.424 169.256 124.792 169.368 120.2V119.96ZM165.384 120.456H166.568C166.344 123.64 165.576 126.584 162.632 128.28C162.488 128.024 162.152 127.592 161.896 127.384C164.648 125.912 165.208 123.208 165.384 120.456ZM164.072 115.336L165.24 115.64C164.568 117.48 163.4 119.608 161.976 120.968C161.816 120.728 161.432 120.36 161.192 120.168C162.488 118.952 163.576 116.968 164.072 115.336ZM161.224 113.624L162.36 113.976C161.304 116.696 159.656 119.4 157.928 121.192C157.8 120.92 157.464 120.28 157.24 120.008C158.824 118.456 160.328 116.056 161.224 113.624ZM159.56 117.752L160.68 116.616L160.712 116.632V128.264H159.56V117.752ZM175.512 128.712L175.144 127.88C176.456 127.336 177.176 126.52 177.176 125.32L176.872 123.96L177.736 125.176C177.512 125.464 177.192 125.544 176.888 125.544C176.232 125.544 175.688 125.16 175.688 124.392C175.688 123.64 176.264 123.24 176.904 123.24C177.8 123.24 178.28 123.976 178.28 125.096C178.28 126.824 177.192 128.136 175.512 128.712ZM193.144 117.88H201.496V118.968H193.144V117.88ZM191.992 125.128H203.784V126.2H191.992V125.128ZM192.6 115.432H203.736V116.52H192.6V115.432ZM201.016 117.88H202.2C202.2 117.88 202.184 118.312 202.184 118.472C201.992 124.92 201.768 127.016 201.256 127.688C200.952 128.088 200.6 128.216 200.12 128.264C199.64 128.296 198.84 128.296 198.04 128.248C198.024 127.976 197.912 127.56 197.752 127.288C198.568 127.352 199.304 127.368 199.608 127.352C199.912 127.352 200.056 127.32 200.2 127.128C200.616 126.616 200.84 124.376 201.016 118.136V117.88ZM192.552 117.88H193.768C193.416 120.744 192.872 124.6 192.472 126.808L191.256 126.728C191.704 124.504 192.28 120.648 192.552 117.88ZM193.32 113.48L194.568 113.832C193.608 116.024 192.152 118.184 190.76 119.592C190.504 119.4 189.96 119.032 189.64 118.856C191.112 117.56 192.488 115.512 193.32 113.48ZM195.24 119.688L195.928 119C196.968 119.464 198.216 120.184 198.856 120.776L198.136 121.528C197.528 120.936 196.296 120.152 195.24 119.688ZM194.84 123.192L195.512 122.52C196.6 123.032 197.928 123.88 198.584 124.504L197.88 125.272C197.24 124.632 195.928 123.752 194.84 123.192ZM189.672 121.464H192.664V121.496H201.496V121.464H204.344V122.552H201.496V122.52H192.664V122.552H189.672V121.464ZM209.048 114.408H217.4V115.576H209.048V114.408ZM209.048 118.264H217.464V119.416H209.048V118.264ZM208.92 122.136H217.384V123.288H208.92V122.136ZM208.312 114.408H209.528V119.352C209.528 122.12 209.128 125.896 206.376 128.296C206.2 128.04 205.72 127.608 205.464 127.432C208.04 125.176 208.312 121.928 208.312 119.352V114.408ZM216.872 114.408H218.12V126.52C218.12 127.368 217.896 127.784 217.288 127.992C216.664 128.2 215.608 128.216 213.88 128.216C213.8 127.864 213.576 127.288 213.368 126.952C214.696 127 216.008 126.984 216.376 126.984C216.744 126.968 216.872 126.856 216.872 126.504V114.408ZM221.864 124.152H236.152V125.208H221.864V124.152ZM228.328 113.56H229.576V115.592H228.328V113.56ZM223.368 121.24H233.464V122.216H223.368V121.24ZM228.344 123.208H229.592V127.064C229.592 127.736 229.4 128.024 228.84 128.184C228.28 128.328 227.352 128.328 225.912 128.328C225.848 128.024 225.656 127.624 225.496 127.336C226.584 127.368 227.688 127.352 227.96 127.352C228.248 127.336 228.344 127.272 228.344 127.032V123.208ZM233.192 121.24H233.512L233.784 121.192L234.584 121.848C233.144 122.744 231.064 123.544 229.176 124.008C229.032 123.8 228.744 123.48 228.568 123.32C230.232 122.904 232.184 122.152 233.192 121.48V121.24ZM225.224 117.928V119.368H232.792V117.928H225.224ZM224.04 117.032H234.04V120.264H224.04V117.032ZM222.008 114.968H235.944V116.008H222.008V114.968ZM238.008 115.64H252.024V116.776H238.008V115.64ZM241.912 121.352H249.432V122.392H241.912V121.352ZM241.064 118.632H249.24V119.704H242.248V128.28H241.064V118.632ZM248.968 118.632H250.136V126.792C250.136 127.496 249.992 127.864 249.448 128.056C248.936 128.248 248.04 128.248 246.664 128.248C246.616 127.912 246.44 127.416 246.264 127.08C247.336 127.128 248.312 127.112 248.6 127.112C248.872 127.096 248.968 127.016 248.968 126.776V118.632ZM243.24 113.56L244.456 113.848C243.368 117.368 241.448 120.92 238.392 123.064C238.232 122.792 237.864 122.376 237.624 122.136C240.488 120.168 242.376 116.776 243.24 113.56ZM241.912 124.056H249.432V125.096H241.912V124.056ZM255.912 125.912H266.056V127.112H255.912V125.912ZM255.832 120.984H266.072V122.168H255.832V120.984ZM255.288 116.136H266.712V128.216H265.464V117.336H256.488V128.28H255.288V116.136ZM260.12 113.512L261.608 113.784C261.16 114.872 260.632 116.072 260.184 116.872L259.016 116.6C259.416 115.736 259.896 114.44 260.12 113.512ZM36.936 137.728C35.608 139.632 33.032 141.84 30.328 143.28C30.184 142.992 29.848 142.576 29.592 142.32C32.36 140.928 35.016 138.56 36.248 136.544H37.48C39.176 138.864 41.944 141.008 44.456 142.128C44.168 142.416 43.88 142.832 43.672 143.184C41.192 141.904 38.408 139.712 36.936 137.728ZM32.968 141.44H41V142.528H32.968V141.44ZM30.904 144.656H43.08V145.728H30.904V144.656ZM30.168 149.712H43.848V150.768H30.168V149.712ZM36.296 141.856H37.56V150.272H36.296V141.856ZM32.232 146.544L33.208 146.144C33.864 147.024 34.52 148.24 34.744 149.04L33.704 149.488C33.496 148.688 32.872 147.44 32.232 146.544ZM40.6 146.112L41.736 146.576C41.128 147.584 40.376 148.736 39.784 149.488L38.872 149.088C39.448 148.304 40.2 147.024 40.6 146.112ZM48.632 142.032V144.448H57.416V142.032H48.632ZM47.608 141.216H58.504V145.264H47.608V141.216ZM50.232 139.488H55.816V140.336H50.232V139.488ZM52.424 141.472H53.448V144.816H52.424V141.472ZM52.92 137.536C51.496 138.992 48.824 140.624 46.168 141.616C46.024 141.344 45.752 140.928 45.528 140.672C48.248 139.744 50.952 138.112 52.28 136.56H53.416C55.224 138.304 58.008 139.776 60.488 140.512C60.232 140.768 59.96 141.2 59.784 141.504C57.432 140.688 54.552 139.104 52.92 137.536ZM49.608 142.512L50.472 142.224C50.888 142.784 51.272 143.536 51.432 144.048L50.504 144.384C50.376 143.872 50.008 143.088 49.608 142.512ZM55.368 142.16L56.392 142.48C56.024 143.168 55.624 143.904 55.304 144.384L54.456 144.096C54.76 143.552 55.176 142.704 55.368 142.16ZM48.552 146.032H57.592V151.264H56.376V146.88H49.736V151.28H48.552V146.032ZM49.256 147.952H56.904V148.832H49.256V147.952ZM49.256 149.92H56.904V150.784H49.256V149.92ZM65.224 138.16V139.808H72.824V138.16H65.224ZM64.024 137.184H74.088V140.8H64.024V137.184ZM64.536 144.592V145.728H73.496V144.592H64.536ZM64.536 146.576V147.728H73.496V146.576H64.536ZM64.536 142.624V143.744H73.496V142.624H64.536ZM63.336 141.728H74.728V148.608H63.336V141.728ZM66.392 148.592L67.512 149.328C66.232 150.112 64.152 150.88 62.504 151.296C62.296 151.04 61.896 150.656 61.608 150.416C63.288 150.016 65.384 149.248 66.392 148.592ZM70.296 149.424L71.336 148.64C73 149.136 75.144 149.92 76.392 150.448L75.352 151.312C74.168 150.752 71.992 149.92 70.296 149.424ZM84.792 140.304H90.76V141.312H84.792V140.304ZM82.296 149.888C83.768 149.632 86.088 149.168 88.328 148.72L88.408 149.776C86.392 150.24 84.248 150.704 82.696 151.056L82.296 149.888ZM84.104 137.28H85.272V149.984H84.104V137.28ZM84.792 137.28H91.32V144.384H84.792V143.328H90.152V138.336H84.792V137.28ZM87.88 143.696C88.568 146.688 90.024 149.184 92.408 150.24C92.136 150.48 91.784 150.928 91.608 151.232C89.112 149.968 87.624 147.264 86.888 143.888L87.88 143.696ZM91.064 144.752L92.008 145.44C91.112 146.272 89.976 147.168 89.08 147.76L88.328 147.152C89.192 146.528 90.392 145.52 91.064 144.752ZM78.296 137.264H82.392V138.352H79.432V151.296H78.296V137.264ZM82.04 137.264H82.264L82.44 137.216L83.256 137.712C82.744 139.04 82.072 140.688 81.48 141.952C82.776 143.28 83.08 144.416 83.08 145.408C83.08 146.288 82.872 146.944 82.392 147.28C82.152 147.44 81.848 147.536 81.512 147.568C81.144 147.616 80.696 147.616 80.296 147.584C80.28 147.296 80.184 146.816 79.992 146.496C80.408 146.544 80.76 146.544 81.048 146.528C81.256 146.512 81.448 146.464 81.608 146.368C81.88 146.192 81.976 145.776 81.96 145.28C81.96 144.4 81.624 143.344 80.376 142.096C81.016 140.64 81.672 138.704 82.04 137.6V137.264ZM96.376 141.456H105.704V142.608H96.376V141.456ZM100.984 145.28H106.376V146.416H100.984V145.28ZM100.344 142.048H101.592V150.144L100.344 149.984V142.048ZM96.552 143.984L97.8 144.112C97.352 147.344 96.344 149.792 94.536 151.36C94.344 151.152 93.832 150.736 93.544 150.56C95.336 149.168 96.2 146.88 96.552 143.984ZM97.304 146.048C98.44 149.312 100.936 149.872 104.184 149.872C104.776 149.872 107.544 149.872 108.328 149.856C108.136 150.144 107.928 150.72 107.88 151.072H104.12C100.312 151.072 97.704 150.32 96.328 146.416L97.304 146.048ZM100.328 136.576H101.592V139.168H100.328V136.576ZM94.312 138.4H107.688V141.888H106.456V139.552H95.496V141.888H94.312V138.4ZM114.12 137.28H124.072V138.208H114.12V137.28ZM115.896 140.416H122.264V141.04H115.896V140.416ZM115.896 141.744H122.264V142.368H115.896V141.744ZM115.256 139.04H122.84V143.472H121.72V139.744H116.36V143.472H115.256V139.04ZM113.672 143.072H124.344V145.232H123.256V143.84H114.728V145.232H113.672V143.072ZM115.736 144.32L116.536 144.768C116.12 145.392 115.512 146.128 114.792 146.576L114.04 145.952C114.728 145.584 115.352 144.912 115.736 144.32ZM116.696 144.288H117.688V145.296C117.688 145.584 117.784 145.648 118.328 145.648C118.584 145.648 119.96 145.648 120.312 145.648C120.68 145.648 120.76 145.552 120.824 144.928C121.016 145.04 121.384 145.152 121.64 145.2C121.544 146.128 121.272 146.368 120.456 146.368C120.184 146.368 118.488 146.368 118.232 146.368C117.016 146.368 116.696 146.176 116.696 145.296V144.288ZM117.848 143.936L118.552 143.456C119.16 143.792 119.88 144.288 120.232 144.704L119.512 145.216C119.16 144.816 118.472 144.272 117.848 143.936ZM121.368 144.704L122.136 144.272C122.824 144.8 123.624 145.568 123.992 146.128L123.192 146.592C122.84 146.048 122.056 145.264 121.368 144.704ZM117.528 146.032L118.648 146.272C117.608 147.408 116.136 148.4 114.152 149.216C113.992 148.976 113.672 148.624 113.448 148.464C115.32 147.808 116.744 146.896 117.528 146.032ZM121.656 147.056H121.896L122.12 147.008L122.872 147.424C121.512 149.44 118.424 150.72 113.944 151.312C113.832 151.056 113.576 150.672 113.352 150.416C117.624 149.952 120.6 148.768 121.656 147.248V147.056ZM116.632 147.504C118.04 149.136 121.128 150.064 124.536 150.352C124.296 150.592 124.008 151.04 123.864 151.344C120.36 150.944 117.256 149.84 115.64 147.872L116.632 147.504ZM116.904 147.056H121.992V147.824H116.136L116.904 147.056ZM118.344 137.712L119.656 137.856C119.416 138.464 119.192 139.072 119 139.504L117.96 139.344C118.104 138.832 118.28 138.176 118.344 137.712ZM112.712 136.656L113.832 136.96C112.92 139.728 111.496 142.544 109.912 144.416C109.8 144.128 109.48 143.488 109.272 143.184C110.68 141.584 111.944 139.12 112.712 136.656ZM111.432 140.576L112.536 139.472L112.568 139.504V151.28H111.432V140.576ZM126.216 137.552H139.768V138.544H126.216V137.552ZM132.296 136.592H133.512V145.728H132.296V136.592ZM128.44 142.192V143.264H137.464V142.192H128.44ZM128.44 140.384V141.44H137.464V140.384H128.44ZM127.304 139.584H138.648V144.08H127.304V139.584ZM135.256 144.624L136.056 144.032C137.448 144.592 139.096 145.616 139.912 146.4L139.096 147.104C138.28 146.288 136.664 145.216 135.256 144.624ZM126.2 145.344C129.096 145.36 133.768 145.328 138.184 145.264L138.12 146.208C133.8 146.304 129.208 146.384 126.248 146.4L126.2 145.344ZM129.208 147.296H130.392V149.568C130.392 149.984 130.568 150.048 131.576 150.048C132.04 150.048 134.424 150.048 135.064 150.048C135.864 150.048 136.008 149.856 136.072 148.448C136.344 148.608 136.808 148.784 137.128 148.848C136.968 150.656 136.6 151.072 135.16 151.072C134.744 151.072 131.896 151.072 131.512 151.072C129.688 151.072 129.208 150.768 129.208 149.568V147.296ZM131.496 147.12L132.264 146.464C133.224 146.928 134.392 147.68 134.968 148.224L134.168 148.96C133.608 148.4 132.456 147.616 131.496 147.12ZM137.048 147.616L138.072 147.248C138.856 148.176 139.672 149.44 139.992 150.272L138.904 150.672C138.584 149.856 137.816 148.576 137.048 147.616ZM127.336 147.232L128.36 147.664C128.008 148.672 127.496 149.968 126.856 150.8L125.816 150.224C126.472 149.456 127.016 148.208 127.336 147.232ZM141.848 142.464H156.12V143.568H141.848V142.464ZM142.872 139.568H155.176V140.64H142.872V139.568ZM144.616 145.312H152.328V146.416H144.616V145.312ZM150.84 139.984C151.848 142.704 153.912 145.072 156.44 146.128C156.168 146.352 155.8 146.816 155.64 147.12C152.984 145.856 150.92 143.344 149.784 140.288L150.84 139.984ZM143.88 137.248L144.904 136.864C145.496 137.6 146.12 138.624 146.376 139.296L145.288 139.728C145.064 139.056 144.456 138.016 143.88 137.248ZM152.728 136.816L153.896 137.216C153.384 138.112 152.744 139.088 152.216 139.744L151.192 139.36C151.704 138.672 152.36 137.584 152.728 136.816ZM151.992 145.312H153.208C153.208 145.312 153.192 145.664 153.176 145.84C152.952 149.056 152.728 150.336 152.28 150.8C151.992 151.12 151.688 151.216 151.208 151.264C150.776 151.296 149.928 151.28 149.048 151.232C149.032 150.896 148.888 150.416 148.696 150.112C149.544 150.192 150.376 150.192 150.68 150.192C150.968 150.192 151.128 150.176 151.272 150.032C151.592 149.728 151.8 148.544 151.992 145.488V145.312ZM147.512 145.648H148.76C148.376 148.4 147.4 150.336 143.672 151.328C143.56 151.024 143.224 150.544 142.984 150.304C146.408 149.52 147.192 147.888 147.512 145.648ZM148.184 136.544L149.448 136.768C148.424 141.152 146.488 145.056 142.296 147.184C142.12 146.912 141.784 146.464 141.528 146.224C145.528 144.272 147.384 140.592 148.184 136.544ZM160.104 146.112C161.448 146.112 162.536 147.2 162.536 148.544C162.536 149.888 161.448 150.976 160.104 150.976C158.76 150.976 157.656 149.888 157.656 148.544C157.656 147.2 158.76 146.112 160.104 146.112ZM160.104 150.16C161 150.16 161.72 149.44 161.72 148.544C161.72 147.648 161 146.928 160.104 146.928C159.208 146.928 158.472 147.648 158.472 148.544C158.472 149.44 159.208 150.16 160.104 150.16Z" fill="white"/>
<g clip-path="url(#clip1_5234_4843)">
<path d="M318 30.3332L308 40.3332L296.333 23.6665L284.667 40.3332L274.667 30.3332V51.9998C274.667 53.3258 275.193 54.5978 276.131 55.5355C277.069 56.4732 278.341 56.9998 279.667 56.9998H313C314.326 56.9998 315.598 56.4732 316.536 55.5355C317.473 54.5978 318 53.3258 318 51.9998V30.3332Z" stroke="white" stroke-width="3" stroke-linecap="round" stroke-linejoin="round"/>
</g>
</g>
</g>
<defs>
<filter id="filter0_b_5234_4843" x="-5" y="-5" width="360" height="215.333" filterUnits="userSpaceOnUse" color-interpolation-filters="sRGB">
<feFlood flood-opacity="0" result="BackgroundImageFix"/>
<feGaussianBlur in="BackgroundImageFix" stdDeviation="2.5"/>
<feComposite in2="SourceAlpha" operator="in" result="effect1_backgroundBlur_5234_4843"/>
<feBlend mode="normal" in="SourceGraphic" in2="effect1_backgroundBlur_5234_4843" result="shape"/>
</filter>
<filter id="filter1_d_5234_4843" x="-41.047" y="-54.7294" width="459.459" height="314.792" filterUnits="userSpaceOnUse" color-interpolation-filters="sRGB">
<feFlood flood-opacity="0" result="BackgroundImageFix"/>
<feColorMatrix in="SourceAlpha" type="matrix" values="0 0 0 0 0 0 0 0 0 0 0 0 0 0 0 0 0 0 127 0" result="hardAlpha"/>
<feOffset dx="13.6823"/>
<feGaussianBlur stdDeviation="27.3647"/>
<feComposite in2="hardAlpha" operator="out"/>
<feColorMatrix type="matrix" values="0 0 0 0 0 0 0 0 0 0 0 0 0 0 0 0 0 0 0.1 0"/>
<feBlend mode="normal" in2="BackgroundImageFix" result="effect1_dropShadow_5234_4843"/>
<feBlend mode="normal" in="SourceGraphic" in2="effect1_dropShadow_5234_4843" result="shape"/>
</filter>
<linearGradient id="paint0_linear_5234_4843" x1="429.318" y1="64.0666" x2="242.314" y2="384.92" gradientUnits="userSpaceOnUse">
<stop stop-color="#F3EAD6"/>
<stop offset="0.16" stop-color="white"/>
<stop offset="0.445" stop-color="#DED0B0"/>
<stop offset="0.965" stop-color="#DED0B0"/>
</linearGradient>
<clipPath id="clip0_5234_4843">
<rect width="350" height="205.333" rx="15" fill="white"/>
</clipPath>
<clipPath id="clip1_5234_4843">
<rect width="46.6667" height="46.6667" fill="white" transform="translate(273 17)"/>
</clipPath>
</defs>
</svg>
