<svg width="350" height="206" viewBox="0 0 350 206" fill="none" xmlns="http://www.w3.org/2000/svg">
<g filter="url(#filter0_b_5234_4741)">
<g clip-path="url(#clip0_5234_4741)">
<g filter="url(#filter1_d_5234_4741)">
<rect width="350" height="205.333" rx="15" fill="url(#paint0_linear_5234_4741)" shape-rendering="crispEdges"/>
</g>
<path d="M-18.6667 -21H369.833V225.167H-18.6667V-21Z" fill="black" fill-opacity="0.2"/>
<path d="M30.408 39.3745H59.688V41.9985H30.408V39.3745ZM79.272 27.5665H86.408V29.6785H79.272V27.5665ZM76.52 40.3025H88.296V42.4465H76.52V40.3025ZM85.352 27.5665H87.56V34.9585C87.56 35.5665 87.56 35.9185 87.688 36.0145C87.784 36.1425 87.976 36.1745 88.2 36.1745C88.424 36.1745 88.808 36.1745 89.096 36.1745C89.352 36.1745 89.64 36.1425 89.768 36.0465C89.896 35.9505 90.024 35.7585 90.088 35.3745C90.152 34.9265 90.184 33.9985 90.216 32.7505C90.664 33.1345 91.432 33.5185 92.008 33.7105C91.976 34.8945 91.88 36.2385 91.688 36.7185C91.496 37.2305 91.176 37.5825 90.76 37.7745C90.408 37.9665 89.8 38.0625 89.288 38.0625C88.904 38.0625 88.04 38.0625 87.688 38.0625C87.08 38.0625 86.376 37.9025 85.96 37.4865C85.512 37.1025 85.352 36.5905 85.352 34.8305V27.5665ZM87.88 40.3025H88.296L88.712 40.2065L90.248 40.7505C88.136 48.9105 82.696 53.5825 76.264 55.7905C76.008 55.1825 75.4 54.2865 74.952 53.7745C80.872 52.0145 86.088 47.5665 87.88 40.6865V40.3025ZM79.688 42.3825C81.704 47.8865 86.024 52.1425 92.2 53.7425C91.688 54.2225 91.016 55.1505 90.696 55.7265C84.328 53.8065 79.976 49.1665 77.704 42.8945L79.688 42.3825ZM78.248 27.5665H80.392V31.7905C80.392 34.2545 79.88 37.3905 77.256 39.4385C76.904 39.0225 76.04 38.2865 75.56 38.0305C77.896 36.2065 78.248 33.7745 78.248 31.7265V27.5665ZM68.36 43.2145H69.928V50.7665H68.36V43.2145ZM65.448 30.7345H72.84V32.6865H65.448V30.7345ZM72.2 30.7345H74.216V53.2945C74.216 54.4145 73.992 55.0225 73.256 55.3745C72.488 55.6945 71.368 55.7585 69.512 55.7585C69.416 55.2145 69.128 54.3185 68.84 53.7745C70.152 53.8065 71.336 53.8065 71.688 53.8065C72.072 53.8065 72.2 53.6785 72.2 53.2945V30.7345ZM64.456 30.7345H66.44V42.3505C66.44 46.4785 66.088 52.1105 63.784 55.7265C63.432 55.3745 62.568 54.8625 62.088 54.6385C64.264 51.1505 64.456 46.2225 64.456 42.3505V30.7345ZM62.12 40.9105C65.512 40.6225 70.664 40.0785 75.688 39.5345L75.72 41.4865C70.888 41.9985 65.896 42.5745 62.376 42.9585L62.12 40.9105ZM67.592 34.5745L69.096 33.9665C69.96 35.2785 70.696 37.0705 70.952 38.2865L69.32 38.9585C69.096 37.7425 68.392 35.9505 67.592 34.5745ZM68.456 26.3185L71.016 26.8305C70.376 28.5265 69.64 30.4465 69.096 31.6625L67.112 31.1825C67.592 29.8065 68.168 27.7265 68.456 26.3185ZM100.264 37.2305V42.0625H117.832V37.2305H100.264ZM98.216 35.5985H120.008V43.6945H98.216V35.5985ZM103.464 32.1425H114.632V33.8385H103.464V32.1425ZM107.848 36.1105H109.896V42.7985H107.848V36.1105ZM108.84 28.2385C105.992 31.1505 100.648 34.4145 95.336 36.3985C95.048 35.8545 94.504 35.0225 94.056 34.5105C99.496 32.6545 104.904 29.3905 107.56 26.2865H109.832C113.448 29.7745 119.016 32.7185 123.976 34.1905C123.464 34.7025 122.92 35.5665 122.568 36.1745C117.864 34.5425 112.104 31.3745 108.84 28.2385ZM102.216 38.1905L103.944 37.6145C104.776 38.7345 105.544 40.2385 105.864 41.2625L104.008 41.9345C103.752 40.9105 103.016 39.3425 102.216 38.1905ZM113.736 37.4865L115.784 38.1265C115.048 39.5025 114.248 40.9745 113.608 41.9345L111.912 41.3585C112.52 40.2705 113.352 38.5745 113.736 37.4865ZM100.104 45.2305H118.184V55.6945H115.752V46.9265H102.472V55.7265H100.104V45.2305ZM101.512 49.0705H116.808V50.8305H101.512V49.0705ZM101.512 53.0065H116.808V54.7345H101.512V53.0065ZM133.448 29.4865V32.7825H148.648V29.4865H133.448ZM131.048 27.5345H151.176V34.7665H131.048V27.5345ZM132.072 42.3505V44.6225H149.992V42.3505H132.072ZM132.072 46.3185V48.6225H149.992V46.3185H132.072ZM132.072 38.4145V40.6545H149.992V38.4145H132.072ZM129.672 36.6225H152.456V50.3825H129.672V36.6225ZM135.784 50.3505L138.024 51.8225C135.464 53.3905 131.304 54.9265 128.008 55.7585C127.592 55.2465 126.792 54.4785 126.216 53.9985C129.576 53.1985 133.768 51.6625 135.784 50.3505ZM143.592 52.0145L145.672 50.4465C149 51.4385 153.288 53.0065 155.784 54.0625L153.704 55.7905C151.336 54.6705 146.984 53.0065 143.592 52.0145ZM30.632 91.3185H34.84V92.2785H30.632V91.3185ZM30.472 95.6385H34.984V96.5985H30.472V95.6385ZM30.472 97.7825H34.984V98.7425H30.472V97.7825ZM29.64 93.4305H35.832V94.4385H29.64V93.4305ZM36.056 93.8945H44.056V95.0305H36.056V93.8945ZM35.592 103.815H44.36V104.951H35.592V103.815ZM36.328 98.6145H43.816V99.7345H36.328V98.6145ZM30.984 99.9265H35.112V104.423H30.984V103.479H33.976V100.871H30.984V99.9265ZM30.376 99.9265H31.48V105.207H30.376V99.9265ZM39.368 90.7745H40.568V94.4385H39.368V90.7745ZM39.368 94.2785H40.568V104.407H39.368V94.2785ZM47.208 91.7185H58.392V92.9025H48.392V105.495H47.208V91.7185ZM57.768 91.7185H58.968V104.023C58.968 104.663 58.84 105.015 58.424 105.223C58.024 105.431 57.4 105.463 56.456 105.463C56.424 105.143 56.248 104.599 56.072 104.279C56.728 104.311 57.336 104.295 57.512 104.295C57.704 104.295 57.768 104.215 57.768 104.007V91.7185ZM45.64 97.5105H60.392V98.6785H45.64V97.5105ZM50.68 92.1185H51.8V105.287H50.68V92.1185ZM54.2 92.1185H55.336V105.287H54.2V92.1185ZM66.504 92.0705H76.168V93.0785H66.504V92.0705ZM66.056 101.415H76.376V102.439H66.056V101.415ZM70.712 90.7265H71.88V94.7105H70.712V90.7265ZM68.872 96.8225V97.8465H73.784V96.8225H68.872ZM68.872 98.6465V99.6705H73.784V98.6465H68.872ZM68.872 95.0465V96.0385H73.784V95.0465H68.872ZM67.768 94.2145H74.936V100.503H67.768V94.2145ZM72.168 103.255L73 102.647C74.264 103.335 75.656 104.199 76.488 104.855L75.384 105.463C74.648 104.823 73.368 103.943 72.168 103.255ZM69.224 102.695L70.344 103.079C69.352 104.023 67.8 104.919 66.488 105.479C66.296 105.255 65.848 104.823 65.592 104.631C66.92 104.167 68.36 103.447 69.224 102.695ZM61.832 94.6465H66.552V95.7825H61.832V94.6465ZM63.704 90.9345H64.84V101.367H63.704V90.9345ZM61.528 101.703C62.824 101.223 64.776 100.391 66.664 99.5905L66.936 100.711C65.24 101.495 63.4 102.295 61.992 102.903L61.528 101.703ZM84.376 90.7425H85.576V92.7105H84.376V90.7425ZM78.2 92.0225H91.8V94.8705H90.664V93.0785H79.304V94.8705H78.2V92.0225ZM83.832 93.5905L84.6 94.3745C83.544 94.8065 82.104 95.1745 80.888 95.3985C80.84 95.1905 80.696 94.8545 80.584 94.6465C81.72 94.3585 83.064 93.9585 83.832 93.5905ZM80.152 94.4065L81.24 94.6465V98.8705H80.152V94.4065ZM80.152 98.3105H88.808V95.2865H85.464V94.4065H89.912V99.2065H80.152V98.3105ZM80.536 96.3585H84.312V97.2225H80.536V96.3585ZM85.704 96.3585H89.368V97.2225H85.704V96.3585ZM82.36 98.7265L83.432 99.0465C82.328 100.791 80.344 102.215 78.408 103.095C78.264 102.855 77.912 102.359 77.688 102.135C79.544 101.415 81.4 100.199 82.36 98.7265ZM81.672 100.247H90.552V101.223H80.68L81.672 100.247ZM90.168 100.247H91.352C91.352 100.247 91.336 100.567 91.32 100.727C91.144 103.495 90.952 104.583 90.568 104.999C90.28 105.287 89.992 105.383 89.544 105.415C89.144 105.447 88.376 105.431 87.576 105.399C87.56 105.079 87.432 104.631 87.24 104.343C88.024 104.407 88.76 104.423 89.016 104.407C89.304 104.423 89.448 104.407 89.576 104.279C89.848 103.991 90.008 102.999 90.168 100.407V100.247ZM80.36 101.863L81.32 102.167C81.08 103.303 80.632 104.535 79.752 105.255L78.872 104.711C79.656 104.071 80.12 102.919 80.36 101.863ZM82.264 102.135L83.208 102.023C83.544 102.919 83.8 104.071 83.8 104.807L82.808 104.951C82.824 104.215 82.6 103.047 82.264 102.135ZM84.52 102.055L85.4 101.815C85.896 102.567 86.344 103.591 86.472 104.247L85.56 104.535C85.432 103.863 85 102.839 84.52 102.055ZM86.744 101.975L87.544 101.591C88.104 102.103 88.696 102.823 88.952 103.351L88.104 103.767C87.88 103.255 87.288 102.487 86.744 101.975ZM96.632 96.1985V98.6145H105.416V96.1985H96.632ZM95.608 95.3825H106.504V99.4305H95.608V95.3825ZM98.232 93.6545H103.816V94.5025H98.232V93.6545ZM100.424 95.6385H101.448V98.9825H100.424V95.6385ZM100.92 91.7025C99.496 93.1585 96.824 94.7905 94.168 95.7825C94.024 95.5105 93.752 95.0945 93.528 94.8385C96.248 93.9105 98.952 92.2785 100.28 90.7265H101.416C103.224 92.4705 106.008 93.9425 108.488 94.6785C108.232 94.9345 107.96 95.3665 107.784 95.6705C105.432 94.8545 102.552 93.2705 100.92 91.7025ZM97.608 96.6785L98.472 96.3905C98.888 96.9505 99.272 97.7025 99.432 98.2145L98.504 98.5505C98.376 98.0385 98.008 97.2545 97.608 96.6785ZM103.368 96.3265L104.392 96.6465C104.024 97.3345 103.624 98.0705 103.304 98.5505L102.456 98.2625C102.76 97.7185 103.176 96.8705 103.368 96.3265ZM96.552 100.199H105.592V105.431H104.376V101.047H97.736V105.447H96.552V100.199ZM97.256 102.119H104.904V102.999H97.256V102.119ZM97.256 104.087H104.904V104.951H97.256V104.087ZM113.224 92.3265V93.9745H120.824V92.3265H113.224ZM112.024 91.3505H122.088V94.9665H112.024V91.3505ZM112.536 98.7585V99.8945H121.496V98.7585H112.536ZM112.536 100.743V101.895H121.496V100.743H112.536ZM112.536 96.7905V97.9105H121.496V96.7905H112.536ZM111.336 95.8945H122.728V102.775H111.336V95.8945ZM114.392 102.759L115.512 103.495C114.232 104.279 112.152 105.047 110.504 105.463C110.296 105.207 109.896 104.823 109.608 104.583C111.288 104.183 113.384 103.415 114.392 102.759ZM118.296 103.591L119.336 102.807C121 103.303 123.144 104.087 124.392 104.615L123.352 105.479C122.168 104.919 119.992 104.087 118.296 103.591ZM126.536 91.9105L127.064 91.0945C128.168 91.3825 129.656 91.9265 130.424 92.3265L129.896 93.2545C129.144 92.8385 127.656 92.2625 126.536 91.9105ZM125.736 95.2865C126.888 95.0145 128.584 94.5345 130.248 94.0705L130.376 95.0145C128.92 95.4785 127.416 95.9745 126.2 96.3425L125.736 95.2865ZM132.6 91.9105H139.032V92.8225H131.896L132.6 91.9105ZM138.712 91.9105H138.904L139.112 91.8625L139.912 92.1025C139.464 92.9345 138.872 93.8305 138.296 94.3905L137.336 94.0545C137.848 93.5585 138.392 92.7585 138.712 92.0865V91.9105ZM134.584 92.2305H135.688C135.352 94.5025 134.328 95.7505 131.064 96.4065C130.952 96.1505 130.696 95.7505 130.488 95.5425C133.448 95.0465 134.312 94.0545 134.584 92.2305ZM135.64 92.5185C135.96 93.8785 136.744 95.1905 140.296 95.7025C140.072 95.9425 139.8 96.3745 139.672 96.6785C135.88 96.0225 135.08 94.2945 134.664 92.6145L135.64 92.5185ZM132.856 90.7265L133.944 90.9025C133.4 92.0705 132.584 93.2545 131.336 94.2145C131.128 93.9905 130.712 93.7345 130.424 93.6065C131.624 92.7905 132.44 91.6865 132.856 90.7265ZM129.048 99.0945V100.183H137.112V99.0945H129.048ZM129.048 100.967V102.087H137.112V100.967H129.048ZM129.048 97.2225V98.3105H137.112V97.2225H129.048ZM127.88 96.4225H138.312V102.887H127.88V96.4225ZM134.328 103.703L135.304 103.095C137.064 103.639 139 104.343 140.152 104.887L138.824 105.495C137.816 104.967 136.072 104.279 134.328 103.703ZM130.568 103.063L131.656 103.559C130.36 104.327 128.328 105.063 126.728 105.511C126.536 105.271 126.12 104.807 125.848 104.599C127.496 104.247 129.416 103.687 130.568 103.063ZM144.328 90.7905H145.448V105.431H144.328V90.7905ZM141.752 96.1025H148.072V97.2385H141.752V96.1025ZM144.152 96.6945L144.872 97.0145C144.312 99.1905 143.176 101.959 142.104 103.415C141.976 103.063 141.688 102.551 141.496 102.231C142.52 100.999 143.64 98.5665 144.152 96.6945ZM145.416 97.4465C145.864 97.9265 147.496 100.103 147.864 100.631L147.064 101.591C146.664 100.727 145.352 98.6305 144.824 97.9425L145.416 97.4465ZM141.864 91.9745L142.744 91.7505C143.192 92.8705 143.56 94.3265 143.672 95.2865L142.728 95.5425C142.648 94.5825 142.28 93.0945 141.864 91.9745ZM147.032 91.6865L148.088 91.9585C147.672 93.1745 147.176 94.6785 146.744 95.5745L145.976 95.3345C146.328 94.3745 146.808 92.7745 147.032 91.6865ZM153.24 90.7425H154.376V105.447H153.24V90.7425ZM148.04 100.919L156.264 99.4465L156.456 100.551L148.232 102.039L148.04 100.919ZM149.24 92.6945L149.864 91.8785C150.792 92.4225 151.896 93.2385 152.424 93.8305L151.784 94.7585C151.272 94.1345 150.168 93.2705 149.24 92.6945ZM148.424 96.7265L148.984 95.8785C149.944 96.3745 151.128 97.1265 151.704 97.7025L151.096 98.6465C150.536 98.0705 149.384 97.2545 148.424 96.7265ZM159.512 105.879L159.144 105.047C160.456 104.503 161.176 103.687 161.176 102.487L160.872 101.127L161.736 102.343C161.512 102.631 161.192 102.711 160.888 102.711C160.232 102.711 159.688 102.327 159.688 101.559C159.688 100.807 160.264 100.407 160.904 100.407C161.8 100.407 162.28 101.143 162.28 102.263C162.28 103.991 161.192 105.303 159.512 105.879ZM175.32 94.7425H180.024V95.8305H175.32V94.7425ZM174.744 91.5905H175.88V103.543L174.744 103.783V91.5905ZM173.624 103.415C175.096 103.047 177.432 102.391 179.688 101.751L179.832 102.887C177.8 103.511 175.608 104.167 174.024 104.631L173.624 103.415ZM177.672 100.151L178.632 99.6705C179.72 101.047 180.856 102.887 181.304 104.087L180.248 104.647C179.832 103.431 178.712 101.543 177.672 100.151ZM175.288 91.5905H180.696V98.9185H175.288V97.7985H179.576V92.7105H175.288V91.5905ZM186.504 91.6065H187.736V101.367C187.736 102.055 187.608 102.471 187.112 102.695C186.648 102.935 185.88 102.951 184.76 102.951C184.728 102.583 184.536 101.991 184.328 101.639C185.192 101.671 185.96 101.655 186.216 101.655C186.44 101.655 186.504 101.575 186.504 101.351V91.6065ZM181.912 91.6065H187.176V92.8065H183.128V105.463H181.912V91.6065ZM200.936 92.2305H202.184V103.735C202.184 104.599 201.976 105.015 201.352 105.207C200.712 105.415 199.592 105.431 198.008 105.431C197.928 105.079 197.688 104.487 197.496 104.135C198.792 104.199 200.088 104.183 200.472 104.167C200.824 104.151 200.936 104.039 200.936 103.703V92.2305ZM191.528 95.4305H192.696V102.679H191.528V95.4305ZM192.024 95.4305H198.088V101.399H192.024V100.247H196.888V96.5665H192.024V95.4305ZM189.88 91.8625H204.152V93.0785H189.88V91.8625ZM207.72 96.7265H211.704V97.8465H207.72V96.7265ZM211.224 96.7265H212.392C212.392 96.7265 212.392 97.0785 212.392 97.2385C212.312 100.855 212.216 102.199 211.88 102.647C211.624 102.935 211.368 103.047 210.92 103.095C210.504 103.143 209.784 103.127 209 103.095C208.968 102.743 208.84 102.279 208.664 101.975C209.384 102.039 210.088 102.039 210.36 102.039C210.584 102.039 210.744 102.023 210.856 101.879C211.096 101.591 211.176 100.391 211.224 96.9345V96.7265ZM215.736 91.5425L216.456 90.7905C217.448 91.3025 218.712 92.0705 219.336 92.6305L218.584 93.4465C217.976 92.8865 216.744 92.0705 215.736 91.5425ZM218.024 95.8785L219.224 96.1665C217.864 100.343 215.48 103.431 212.2 105.367C212.024 105.127 211.576 104.631 211.32 104.391C214.568 102.663 216.824 99.7345 218.024 95.8785ZM207.816 93.4465H220.2V94.6305H207.816V93.4465ZM207.048 93.4465H208.296V97.9585C208.296 100.231 208.04 103.463 206.584 105.559C206.376 105.319 205.864 104.903 205.576 104.759C206.904 102.791 207.048 100.039 207.048 97.9425V93.4465ZM213.688 90.7585H214.936C214.904 98.1185 216.472 104.119 218.552 104.119C219 104.119 219.208 103.287 219.304 101.159C219.576 101.431 220.024 101.703 220.344 101.815C220.12 104.551 219.672 105.335 218.456 105.335C215.192 105.335 213.752 98.4225 213.688 90.7585ZM224.36 99.2545H235.256V100.311H224.36V99.2545ZM222.296 93.4785H232.76V94.5825H222.296V93.4785ZM226.808 96.3585H234.136V97.4305H226.808V96.3585ZM234.744 99.2545H235.944C235.944 99.2545 235.928 99.6065 235.896 99.7825C235.608 103.159 235.304 104.487 234.792 105.015C234.488 105.319 234.184 105.431 233.704 105.463C233.304 105.495 232.504 105.479 231.672 105.447C231.656 105.111 231.528 104.647 231.336 104.327C232.136 104.423 232.904 104.423 233.208 104.423C233.512 104.423 233.672 104.391 233.816 104.263C234.184 103.895 234.488 102.631 234.744 99.4465V99.2545ZM231.192 101.175L232.04 100.855C232.552 101.511 233.048 102.407 233.256 102.983L232.376 103.351C232.168 102.775 231.672 101.847 231.192 101.175ZM224.28 91.2065L225.32 90.7745C225.944 91.4145 226.648 92.3265 226.968 92.9345L225.848 93.4465C225.576 92.8225 224.904 91.8785 224.28 91.2065ZM226.456 101.575L227.432 101.447C227.752 102.455 227.928 103.783 227.928 104.647L226.872 104.791C226.904 103.927 226.728 102.615 226.456 101.575ZM228.808 101.431L229.752 101.207C230.168 102.087 230.568 103.223 230.696 103.975L229.704 104.247C229.592 103.479 229.208 102.311 228.808 101.431ZM224.408 101.207L225.416 101.543C225.048 102.871 224.488 104.391 223.512 105.367L222.584 104.711C223.48 103.863 224.088 102.439 224.408 101.207ZM229.128 90.7265L230.344 91.0305C228.888 95.5105 226.376 99.7345 222.136 102.247C221.992 101.959 221.688 101.479 221.48 101.223C225.448 98.9665 227.912 94.8705 229.128 90.7265ZM232.488 93.4785H233.624C233.4 94.5825 233.112 95.9105 232.872 96.7745L231.816 96.6305C232.04 95.7825 232.312 94.5025 232.488 93.4785ZM233.688 96.3585H234.824C234.6 97.4625 234.328 98.8065 234.104 99.6705L233.016 99.5425C233.256 98.6785 233.528 97.3825 233.688 96.3585ZM33.864 124.743C34.8347 124.743 35.6453 124.833 36.296 125.015C36.9573 125.196 37.4533 125.5 37.784 125.927C38.1253 126.343 38.296 126.897 38.296 127.591C38.296 128.039 38.216 128.439 38.056 128.791C37.896 129.132 37.6613 129.42 37.352 129.655C37.0533 129.879 36.68 130.028 36.232 130.103V130.183C36.6907 130.257 37.1013 130.396 37.464 130.599C37.8267 130.791 38.1147 131.073 38.328 131.447C38.5413 131.82 38.648 132.305 38.648 132.903C38.648 133.596 38.4827 134.188 38.152 134.679C37.832 135.159 37.368 135.527 36.76 135.783C36.1627 136.039 35.448 136.167 34.616 136.167H30.52V124.743H33.864ZM34.152 129.511C35.048 129.511 35.6613 129.367 35.992 129.079C36.3333 128.791 36.504 128.364 36.504 127.799C36.504 127.223 36.3013 126.812 35.896 126.567C35.4907 126.321 34.8453 126.199 33.96 126.199H32.248V129.511H34.152ZM32.248 130.919V134.727H34.344C35.272 134.727 35.9173 134.545 36.28 134.183C36.6427 133.82 36.824 133.34 36.824 132.743C36.824 132.38 36.744 132.06 36.584 131.783C36.424 131.505 36.152 131.292 35.768 131.143C35.3947 130.993 34.8827 130.919 34.232 130.919H32.248ZM44.22 127.383C44.9773 127.383 45.628 127.543 46.172 127.863C46.716 128.172 47.132 128.62 47.42 129.207C47.7187 129.793 47.868 130.487 47.868 131.287V132.215H42.076C42.0973 133.1 42.3267 133.777 42.764 134.247C43.212 134.716 43.836 134.951 44.636 134.951C45.1907 134.951 45.6813 134.903 46.108 134.807C46.5453 134.7 46.9933 134.545 47.452 134.343V135.751C47.0253 135.943 46.588 136.087 46.14 136.183C45.7027 136.279 45.18 136.327 44.572 136.327C43.74 136.327 43.004 136.161 42.364 135.831C41.724 135.5 41.2227 135.009 40.86 134.359C40.508 133.697 40.332 132.887 40.332 131.927C40.332 130.956 40.492 130.135 40.812 129.463C41.1427 128.791 41.596 128.279 42.172 127.927C42.7587 127.564 43.4413 127.383 44.22 127.383ZM44.22 128.695C43.612 128.695 43.1213 128.892 42.748 129.287C42.3853 129.681 42.172 130.241 42.108 130.967H46.172C46.172 130.519 46.1027 130.124 45.964 129.783C45.8253 129.441 45.612 129.175 45.324 128.983C45.036 128.791 44.668 128.695 44.22 128.695ZM53.3283 127.383C54.4163 127.383 55.2269 127.623 55.7603 128.103C56.2936 128.572 56.5603 129.313 56.5603 130.327V136.167H55.3603L55.0243 134.967H54.9603C54.7149 135.276 54.4589 135.532 54.1923 135.735C53.9363 135.937 53.6376 136.087 53.2963 136.183C52.9656 136.279 52.5603 136.327 52.0803 136.327C51.5683 136.327 51.1043 136.236 50.6883 136.055C50.2829 135.863 49.9629 135.575 49.7283 135.191C49.4936 134.796 49.3763 134.305 49.3763 133.719C49.3763 132.844 49.7069 132.177 50.3683 131.719C51.0403 131.26 52.0589 131.009 53.4243 130.967L54.8963 130.919V130.439C54.8963 129.799 54.7523 129.351 54.4643 129.095C54.1763 128.839 53.7709 128.711 53.2483 128.711C52.8003 128.711 52.3736 128.775 51.9683 128.903C51.5629 129.031 51.1789 129.185 50.8163 129.367L50.2723 128.135C50.6776 127.921 51.1416 127.745 51.6643 127.607C52.1976 127.457 52.7523 127.383 53.3283 127.383ZM53.7283 132.055C52.7469 132.097 52.0643 132.263 51.6803 132.551C51.3069 132.828 51.1203 133.223 51.1203 133.735C51.1203 134.183 51.2536 134.508 51.5203 134.711C51.7976 134.913 52.1443 135.015 52.5603 135.015C53.2323 135.015 53.7869 134.828 54.2243 134.455C54.6616 134.081 54.8803 133.521 54.8803 132.775V132.023L53.7283 132.055ZM66.5958 127.543V136.167H65.2358L64.9958 135.031H64.9158C64.7344 135.329 64.4998 135.575 64.2118 135.767C63.9238 135.959 63.6091 136.097 63.2678 136.183C62.9264 136.279 62.5744 136.327 62.2118 136.327C61.5398 136.327 60.9691 136.22 60.4998 136.007C60.0411 135.783 59.6891 135.441 59.4438 134.983C59.2091 134.513 59.0918 133.916 59.0918 133.191V127.543H60.8038V132.935C60.8038 133.607 60.9424 134.108 61.2198 134.439C61.5078 134.769 61.9504 134.935 62.5477 134.935C63.1451 134.935 63.6144 134.817 63.9558 134.583C64.2971 134.348 64.5371 134.007 64.6758 133.559C64.8251 133.1 64.8998 132.551 64.8998 131.911V127.543H66.5958ZM72.3539 134.951C72.5779 134.951 72.8072 134.929 73.0419 134.887C73.2765 134.844 73.4792 134.796 73.6499 134.743V136.023C73.4685 136.108 73.2232 136.177 72.9139 136.231C72.6045 136.295 72.2952 136.327 71.9859 136.327C71.5165 136.327 71.0845 136.247 70.6899 136.087C70.3059 135.927 69.9965 135.649 69.7619 135.255C69.5272 134.86 69.4099 134.311 69.4099 133.607V128.839H68.2099V128.071L69.4739 127.431L70.0659 125.607H71.1059V127.543H73.5699V128.839H71.1059V133.575C71.1059 134.044 71.2179 134.391 71.4419 134.615C71.6765 134.839 71.9805 134.951 72.3539 134.951ZM77.0709 127.543V136.167H75.3749V127.543H77.0709ZM76.2389 124.263C76.4949 124.263 76.7189 124.337 76.9109 124.487C77.1029 124.636 77.1989 124.887 77.1989 125.239C77.1989 125.58 77.1029 125.831 76.9109 125.991C76.7189 126.14 76.4949 126.215 76.2389 126.215C75.9615 126.215 75.7269 126.14 75.5349 125.991C75.3535 125.831 75.2629 125.58 75.2629 125.239C75.2629 124.887 75.3535 124.636 75.5349 124.487C75.7269 124.337 75.9615 124.263 76.2389 124.263ZM85.3023 136.343C85.3023 136.14 85.3076 135.916 85.3183 135.671C85.3396 135.425 85.3663 135.207 85.3983 135.015H85.3023C85.0569 135.377 84.7209 135.687 84.2943 135.943C83.8783 136.199 83.3343 136.327 82.6623 136.327C81.6489 136.327 80.8223 135.953 80.1823 135.207C79.5529 134.46 79.2383 133.345 79.2383 131.863C79.2383 130.881 79.3823 130.06 79.6703 129.399C79.9689 128.727 80.3796 128.225 80.9023 127.895C81.4249 127.553 82.0276 127.383 82.7103 127.383C83.3823 127.383 83.9263 127.511 84.3423 127.767C84.7583 128.023 85.0943 128.332 85.3503 128.695H85.4143L85.6223 127.543H86.9983V140.007H85.3023V136.343ZM83.1102 134.951C83.6543 134.951 84.0863 134.849 84.4063 134.647C84.7369 134.444 84.9769 134.14 85.1263 133.735C85.2756 133.319 85.3556 132.801 85.3663 132.183V131.895C85.3663 130.871 85.2009 130.097 84.8703 129.575C84.5396 129.041 83.9423 128.775 83.0783 128.775C82.3743 128.775 81.8463 129.057 81.4943 129.623C81.1529 130.177 80.9823 130.94 80.9823 131.911C80.9823 132.881 81.1529 133.633 81.4943 134.167C81.8463 134.689 82.3849 134.951 83.1102 134.951ZM97.0801 127.543V136.167H95.7201L95.4801 135.031H95.4001C95.2188 135.329 94.9841 135.575 94.6961 135.767C94.4081 135.959 94.0935 136.097 93.7521 136.183C93.4108 136.279 93.0588 136.327 92.6961 136.327C92.0241 136.327 91.4535 136.22 90.9841 136.007C90.5255 135.783 90.1735 135.441 89.9281 134.983C89.6935 134.513 89.5761 133.916 89.5761 133.191V127.543H91.2881V132.935C91.2881 133.607 91.4268 134.108 91.7041 134.439C91.9921 134.769 92.4348 134.935 93.0321 134.935C93.6295 134.935 94.0988 134.817 94.4401 134.583C94.7815 134.348 95.0215 134.007 95.1601 133.559C95.3095 133.1 95.3841 132.551 95.3841 131.911V127.543H97.0801ZM103.126 127.383C103.884 127.383 104.534 127.543 105.078 127.863C105.622 128.172 106.038 128.62 106.326 129.207C106.625 129.793 106.774 130.487 106.774 131.287V132.215H100.982C101.004 133.1 101.233 133.777 101.67 134.247C102.118 134.716 102.742 134.951 103.542 134.951C104.097 134.951 104.588 134.903 105.014 134.807C105.452 134.7 105.9 134.545 106.358 134.343V135.751C105.932 135.943 105.494 136.087 105.046 136.183C104.609 136.279 104.086 136.327 103.478 136.327C102.646 136.327 101.91 136.161 101.27 135.831C100.63 135.5 100.129 135.009 99.7663 134.359C99.4143 133.697 99.2383 132.887 99.2383 131.927C99.2383 130.956 99.3983 130.135 99.7183 129.463C100.049 128.791 100.502 128.279 101.078 127.927C101.665 127.564 102.348 127.383 103.126 127.383ZM103.126 128.695C102.518 128.695 102.028 128.892 101.654 129.287C101.292 129.681 101.078 130.241 101.014 130.967H105.078C105.078 130.519 105.009 130.124 104.87 129.783C104.732 129.441 104.518 129.175 104.23 128.983C103.942 128.791 103.574 128.695 103.126 128.695ZM108.267 129.271H122.907V130.583H108.267V129.271ZM132.699 123.367H136.267V124.423H132.699V123.367ZM131.323 129.735H137.211V130.807H131.323V129.735ZM135.739 123.367H136.843V127.063C136.843 127.367 136.843 127.543 136.907 127.591C136.955 127.655 137.051 127.671 137.163 127.671C137.275 127.671 137.467 127.671 137.611 127.671C137.739 127.671 137.883 127.655 137.947 127.607C138.011 127.559 138.075 127.463 138.107 127.271C138.139 127.047 138.155 126.583 138.171 125.959C138.395 126.151 138.779 126.343 139.067 126.439C139.051 127.031 139.003 127.703 138.907 127.943C138.811 128.199 138.651 128.375 138.443 128.471C138.267 128.567 137.963 128.615 137.707 128.615C137.515 128.615 137.083 128.615 136.907 128.615C136.603 128.615 136.251 128.535 136.043 128.327C135.819 128.135 135.739 127.879 135.739 126.999V123.367ZM137.003 129.735H137.211L137.419 129.687L138.187 129.959C137.131 134.039 134.411 136.375 131.195 137.479C131.067 137.175 130.763 136.727 130.539 136.471C133.499 135.591 136.107 133.367 137.003 129.927V129.735ZM132.907 130.775C133.915 133.527 136.075 135.655 139.163 136.455C138.907 136.695 138.571 137.159 138.411 137.447C135.227 136.487 133.051 134.167 131.915 131.031L132.907 130.775ZM132.187 123.367H133.259V125.479C133.259 126.711 133.003 128.279 131.691 129.303C131.515 129.095 131.083 128.727 130.843 128.599C132.01 127.687 132.187 126.471 132.187 125.447V123.367ZM127.243 131.191H128.027V134.967H127.243V131.191ZM125.787 124.951H129.483V125.927H125.787V124.951ZM129.163 124.951H130.171V136.231C130.171 136.791 130.059 137.095 129.691 137.271C129.307 137.431 128.747 137.463 127.819 137.463C127.771 137.191 127.627 136.743 127.483 136.471C128.139 136.487 128.731 136.487 128.907 136.487C129.099 136.487 129.163 136.423 129.163 136.231V124.951ZM125.291 124.951H126.283V130.759C126.283 132.823 126.107 135.639 124.955 137.447C124.779 137.271 124.347 137.015 124.107 136.903C125.195 135.159 125.291 132.695 125.291 130.759V124.951ZM124.123 130.039C125.819 129.895 128.395 129.623 130.907 129.351L130.923 130.327C128.507 130.583 126.011 130.871 124.251 131.063L124.123 130.039ZM126.859 126.871L127.611 126.567C128.043 127.223 128.411 128.119 128.539 128.727L127.723 129.063C127.611 128.455 127.259 127.559 126.859 126.871ZM127.291 122.743L128.571 122.999C128.251 123.847 127.883 124.807 127.611 125.415L126.619 125.175C126.859 124.487 127.147 123.447 127.291 122.743ZM143.195 128.199V130.615H151.979V128.199H143.195ZM142.171 127.383H153.067V131.431H142.171V127.383ZM144.795 125.655H150.379V126.503H144.795V125.655ZM146.987 127.639H148.01V130.983H146.987V127.639ZM147.483 123.703C146.059 125.159 143.387 126.791 140.731 127.783C140.587 127.511 140.315 127.095 140.09 126.839C142.811 125.911 145.515 124.279 146.843 122.727H147.979C149.787 124.471 152.571 125.943 155.051 126.679C154.795 126.935 154.523 127.367 154.347 127.671C151.995 126.855 149.115 125.271 147.483 123.703ZM144.171 128.679L145.035 128.391C145.451 128.951 145.835 129.703 145.995 130.215L145.067 130.551C144.939 130.039 144.571 129.255 144.171 128.679ZM149.931 128.327L150.955 128.647C150.587 129.335 150.187 130.071 149.867 130.551L149.019 130.263C149.323 129.719 149.739 128.871 149.931 128.327ZM143.115 132.199H152.155V137.431H150.939V133.047H144.299V137.447H143.115V132.199ZM143.819 134.119H151.467V134.999H143.819V134.119ZM143.819 136.087H151.467V136.951H143.819V136.087ZM159.786 124.327V125.975H167.387V124.327H159.786ZM158.587 123.351H168.651V126.967H158.587V123.351ZM159.099 130.759V131.895H168.059V130.759H159.099ZM159.099 132.743V133.895H168.059V132.743H159.099ZM159.099 128.791V129.911H168.059V128.791H159.099ZM157.899 127.895H169.291V134.775H157.899V127.895ZM160.955 134.759L162.075 135.495C160.795 136.279 158.715 137.047 157.067 137.463C156.859 137.207 156.459 136.823 156.171 136.583C157.851 136.183 159.947 135.415 160.955 134.759ZM164.859 135.591L165.899 134.807C167.563 135.303 169.707 136.087 170.955 136.615L169.915 137.479C168.731 136.919 166.555 136.087 164.859 135.591ZM174.075 137.879L173.707 137.047C175.019 136.503 175.739 135.687 175.739 134.487L175.435 133.127L176.299 134.343C176.075 134.631 175.755 134.711 175.451 134.711C174.795 134.711 174.251 134.327 174.251 133.559C174.251 132.807 174.827 132.407 175.467 132.407C176.363 132.407 176.843 133.143 176.843 134.263C176.843 135.991 175.755 137.303 174.075 137.879ZM188.443 129.143H192.987V130.279H188.443V129.143ZM190.523 126.039H195.659V127.191H190.523V126.039ZM196.123 126.759C197.179 130.759 199.419 134.023 202.987 135.367C202.715 135.607 202.331 136.087 202.155 136.407C198.491 134.839 196.283 131.431 195.099 126.983L196.123 126.759ZM201.323 127.175L202.427 127.959C201.083 129.223 199.307 130.711 197.915 131.639L197.067 130.951C198.427 129.991 200.267 128.391 201.323 127.175ZM194.955 126.039H196.235V135.911C196.235 136.647 196.059 137.015 195.547 137.223C195.019 137.415 194.155 137.431 192.827 137.431C192.763 137.095 192.587 136.567 192.395 136.215C193.371 136.263 194.315 136.263 194.587 136.247C194.875 136.231 194.955 136.151 194.955 135.895V126.039ZM191.995 123.735L192.587 122.759C194.555 123.207 197.163 124.103 198.523 124.823L197.915 125.943C196.587 125.207 194.011 124.263 191.995 123.735ZM192.539 129.143H192.779L193.003 129.095L193.803 129.431C192.971 132.727 191.115 135.127 189.067 136.455C188.875 136.183 188.395 135.735 188.107 135.527C190.123 134.375 191.851 132.167 192.539 129.383V129.143ZM208.939 122.743L210.219 123.031C209.099 126.407 207.307 129.383 205.163 131.287C204.939 131.063 204.395 130.631 204.09 130.423C206.267 128.679 207.947 125.847 208.939 122.743ZM212.907 129.447C213.963 132.487 216.203 135.191 219.019 136.375C218.747 136.615 218.347 137.111 218.155 137.431C215.227 136.039 213.003 133.191 211.771 129.783L212.907 129.447ZM208.427 125.335H213.595V126.535H207.851L208.427 125.335ZM213.163 125.335H213.403L213.643 125.271L214.491 125.655C213.019 131.735 209.387 135.591 205.195 137.495C205.019 137.191 204.571 136.663 204.267 136.455C208.411 134.695 211.883 131.111 213.163 125.607V125.335ZM229.323 123.527H233.771V124.631H229.323V123.527ZM229.323 127.207H233.771V128.279H229.323V127.207ZM229.307 130.935H233.803V132.023H229.307V130.935ZM233.227 123.527H234.395V135.927C234.395 136.615 234.235 136.983 233.771 137.175C233.323 137.367 232.571 137.399 231.387 137.399C231.355 137.063 231.179 136.535 231.019 136.231C231.867 136.247 232.667 136.247 232.907 136.231C233.147 136.231 233.227 136.151 233.227 135.911V123.527ZM228.827 123.527H229.963V129.335C229.963 131.799 229.771 135.255 228.331 137.527C228.123 137.303 227.642 136.951 227.371 136.839C228.715 134.695 228.827 131.655 228.827 129.335V123.527ZM220.379 124.871H228.043V125.927H220.379V124.871ZM222.267 127.351H226.315V128.327H222.267V127.351ZM222.267 129.895H226.331V130.855H222.267V129.895ZM220.171 132.471H228.043V133.543H220.171V132.471ZM221.739 122.919H222.843V132.903H221.739V122.919ZM225.755 122.919H226.859V132.903H225.755V122.919ZM222.395 133.895L223.547 134.215C222.955 135.431 222.027 136.663 221.163 137.463C220.939 137.271 220.475 136.919 220.187 136.759C221.083 136.039 221.914 134.967 222.395 133.895ZM224.699 134.391L225.627 133.895C226.251 134.615 227.003 135.607 227.323 136.263L226.347 136.839C226.043 136.199 225.323 135.143 224.699 134.391ZM243.355 126.471H249.323V127.479H243.355V126.471ZM240.859 136.055C242.331 135.799 244.651 135.335 246.891 134.887L246.971 135.943C244.955 136.407 242.811 136.871 241.259 137.223L240.859 136.055ZM242.667 123.447H243.835V136.151H242.667V123.447ZM243.355 123.447H249.883V130.551H243.355V129.495H248.715V124.503H243.355V123.447ZM246.443 129.863C247.131 132.855 248.587 135.351 250.971 136.407C250.699 136.647 250.347 137.095 250.171 137.399C247.675 136.135 246.187 133.431 245.451 130.055L246.443 129.863ZM249.627 130.919L250.571 131.607C249.675 132.439 248.539 133.335 247.643 133.927L246.891 133.319C247.755 132.695 248.955 131.687 249.627 130.919ZM236.859 123.431H240.955V124.519H237.995V137.463H236.859V123.431ZM240.603 123.431H240.827L241.003 123.383L241.819 123.879C241.307 125.207 240.635 126.855 240.043 128.119C241.339 129.447 241.643 130.583 241.643 131.575C241.643 132.455 241.435 133.111 240.955 133.447C240.715 133.607 240.411 133.703 240.075 133.735C239.707 133.783 239.259 133.783 238.859 133.751C238.843 133.463 238.747 132.983 238.555 132.663C238.971 132.711 239.323 132.711 239.611 132.695C239.819 132.679 240.011 132.631 240.171 132.535C240.443 132.359 240.539 131.943 240.523 131.447C240.523 130.567 240.187 129.511 238.939 128.263C239.579 126.807 240.235 124.871 240.603 123.767V123.431ZM254.667 132.279C256.011 132.279 257.099 133.367 257.099 134.711C257.099 136.055 256.011 137.143 254.667 137.143C253.323 137.143 252.219 136.055 252.219 134.711C252.219 133.367 253.323 132.279 254.667 132.279ZM254.667 136.327C255.562 136.327 256.283 135.607 256.283 134.711C256.283 133.815 255.562 133.095 254.667 133.095C253.771 133.095 253.035 133.815 253.035 134.711C253.035 135.607 253.771 136.327 254.667 136.327Z" fill="white"/>
<path d="M296.333 35.8984V50.2984" stroke="white" stroke-width="2" stroke-linecap="round" stroke-linejoin="round"/>
<path d="M291.533 39.4984H292.733C294.722 39.4984 296.333 37.8867 296.333 35.8984" stroke="white" stroke-width="2" stroke-linecap="round" stroke-linejoin="round"/>
<path d="M301.133 50.2979H291.533" stroke="white" stroke-width="2" stroke-linecap="round" stroke-linejoin="round"/>
<path d="M293.128 23.2741C293.469 22.7311 293.941 22.2835 294.502 21.9731C295.062 21.6628 295.692 21.5 296.333 21.5C296.974 21.5 297.604 21.6628 298.165 21.9731C298.725 22.2835 299.198 22.7311 299.538 23.2741L305.755 33.113L313.864 34.1065C314.536 34.1816 315.175 34.4389 315.712 34.8505C316.249 35.2621 316.664 35.8125 316.911 36.4423C317.159 37.0721 317.229 37.7575 317.116 38.4246C317.002 39.0917 316.709 39.7151 316.267 40.2277L309.505 47.9834L311.684 58.7197C311.821 59.42 311.755 60.145 311.494 60.8093C311.233 61.4733 310.787 62.0493 310.21 62.4693C309.626 62.8817 308.937 63.121 308.223 63.1607C307.509 63.2003 306.799 63.0387 306.172 62.6937L296.333 57.3093L286.494 62.6937C285.868 63.0387 285.157 63.2003 284.443 63.1607C283.729 63.121 283.041 62.8817 282.456 62.4693C281.879 62.0493 281.434 61.4733 281.173 60.8093C280.912 60.145 280.845 59.42 280.982 58.7197L283.161 47.9834L276.399 40.2277C275.957 39.7151 275.664 39.0917 275.551 38.4246C275.437 37.7575 275.508 37.0721 275.755 36.4423C276.002 35.8125 276.417 35.2621 276.954 34.8505C277.491 34.4389 278.13 34.1816 278.803 34.1065L286.911 33.113L293.128 23.2741Z" stroke="white" stroke-width="2" stroke-linecap="round" stroke-linejoin="round"/>
</g>
</g>
<defs>
<filter id="filter0_b_5234_4741" x="-5" y="-5" width="360" height="215.333" filterUnits="userSpaceOnUse" color-interpolation-filters="sRGB">
<feFlood flood-opacity="0" result="BackgroundImageFix"/>
<feGaussianBlur in="BackgroundImageFix" stdDeviation="2.5"/>
<feComposite in2="SourceAlpha" operator="in" result="effect1_backgroundBlur_5234_4741"/>
<feBlend mode="normal" in="SourceGraphic" in2="effect1_backgroundBlur_5234_4741" result="shape"/>
</filter>
<filter id="filter1_d_5234_4741" x="-41.047" y="-54.7294" width="459.459" height="314.792" filterUnits="userSpaceOnUse" color-interpolation-filters="sRGB">
<feFlood flood-opacity="0" result="BackgroundImageFix"/>
<feColorMatrix in="SourceAlpha" type="matrix" values="0 0 0 0 0 0 0 0 0 0 0 0 0 0 0 0 0 0 127 0" result="hardAlpha"/>
<feOffset dx="13.6823"/>
<feGaussianBlur stdDeviation="27.3647"/>
<feComposite in2="hardAlpha" operator="out"/>
<feColorMatrix type="matrix" values="0 0 0 0 0 0 0 0 0 0 0 0 0 0 0 0 0 0 0.1 0"/>
<feBlend mode="normal" in2="BackgroundImageFix" result="effect1_dropShadow_5234_4741"/>
<feBlend mode="normal" in="SourceGraphic" in2="effect1_dropShadow_5234_4741" result="shape"/>
</filter>
<linearGradient id="paint0_linear_5234_4741" x1="429.318" y1="64.0666" x2="242.314" y2="384.92" gradientUnits="userSpaceOnUse">
<stop stop-color="#E7E3E3"/>
<stop offset="0.16" stop-color="white" stop-opacity="0.925"/>
<stop offset="0.445" stop-color="#DAD5D5" stop-opacity="0.85"/>
<stop offset="0.965" stop-color="#9B9B9B"/>
</linearGradient>
<clipPath id="clip0_5234_4741">
<rect width="350" height="205.333" rx="15" fill="white"/>
</clipPath>
</defs>
</svg>
