<svg width="1250" height="58" viewBox="0 0 1250 58" fill="none" xmlns="http://www.w3.org/2000/svg">
<path d="M7.9 43.552C5.72267 43.552 4.02067 43.1073 2.794 42.218C1.56733 41.3287 0.954 40.24 0.954 38.952C0.954 38.0627 1.21467 37.4033 1.736 36.974C2.288 36.514 2.932 36.284 3.668 36.284C4.46533 36.284 5.06333 36.514 5.462 36.974C5.89133 37.434 6.106 37.94 6.106 38.492C6.106 39.0133 5.98333 39.4273 5.738 39.734C5.49267 40.0407 5.37 40.378 5.37 40.746C5.37 41.0833 5.58467 41.39 6.014 41.666C6.474 41.9113 7.256 42.034 8.36 42.034C9.98533 42.034 11.1507 41.758 11.856 41.206C12.592 40.6233 12.96 39.964 12.96 39.228C12.96 38.492 12.6687 37.8327 12.086 37.25C11.5033 36.6673 10.7673 36.1153 9.878 35.594C9.01933 35.042 8.14533 34.4593 7.256 33.846C6.36667 33.202 5.63067 32.4507 5.048 31.592C4.46533 30.7333 4.174 29.6907 4.174 28.464C4.174 27.268 4.496 26.1793 5.14 25.198C5.81467 24.186 6.73467 23.3887 7.9 22.806C9.096 22.1927 10.476 21.886 12.04 21.886C13.2053 21.886 14.2327 22.0547 15.122 22.392C16.0113 22.7293 16.7167 23.1893 17.238 23.772C17.79 24.3547 18.066 25.0293 18.066 25.796C18.066 26.44 17.8513 26.992 17.422 27.452C17.0233 27.912 16.4407 28.142 15.674 28.142C14.9687 28.142 14.4167 27.958 14.018 27.59C13.65 27.1913 13.466 26.7313 13.466 26.21C13.466 25.8113 13.5273 25.474 13.65 25.198C13.8033 24.922 13.88 24.646 13.88 24.37C13.88 23.9407 13.65 23.6493 13.19 23.496C12.7607 23.312 12.2393 23.22 11.626 23.22C10.7367 23.22 9.924 23.404 9.188 23.772C8.452 24.14 8.084 24.7073 8.084 25.474C8.084 26.1487 8.37533 26.762 8.958 27.314C9.57133 27.8353 10.3227 28.3567 11.212 28.878C12.1013 29.3993 12.9753 29.9973 13.834 30.672C14.7233 31.316 15.4593 32.098 16.042 33.018C16.6553 33.9073 16.962 35.0113 16.962 36.33C16.962 37.7407 16.5633 38.998 15.766 40.102C14.9687 41.1753 13.88 42.0187 12.5 42.632C11.1507 43.2453 9.61733 43.552 7.9 43.552ZM25.3135 43.552C23.9335 43.552 22.9368 43.2147 22.3235 42.54C21.7102 41.8653 21.4035 41.0527 21.4035 40.102C21.4035 39.734 21.4342 39.32 21.4955 38.86C21.5875 38.3693 21.6642 37.9553 21.7255 37.618L26.5555 16.78H32.3055L27.0615 38.86C26.9695 39.2587 26.9082 39.5807 26.8775 39.826C26.8468 40.0713 26.8315 40.24 26.8315 40.332C26.8315 40.976 27.1535 41.298 27.7975 41.298C28.4415 41.298 29.2082 40.8993 30.0975 40.102C31.0175 39.3047 31.9682 37.8787 32.9495 35.824L34.0075 36.238C33.4248 37.71 32.6735 38.998 31.7535 40.102C30.8642 41.1753 29.8675 42.0187 28.7635 42.632C27.6902 43.2453 26.5402 43.552 25.3135 43.552ZM22.1395 23.588V22.3H35.2955V23.588H22.1395ZM45.4533 43.552C43.4599 43.552 41.7733 43.138 40.3933 42.31C39.0133 41.4513 37.9553 40.3473 37.2193 38.998C36.4833 37.6487 36.1153 36.2073 36.1153 34.674C36.1153 33.0487 36.4833 31.4693 37.2193 29.936C37.9553 28.4027 38.9519 27.0227 40.2093 25.796C41.4666 24.5387 42.8926 23.5573 44.4873 22.852C46.0819 22.116 47.7226 21.748 49.4093 21.748C50.7893 21.748 52.0159 21.9933 53.0893 22.484C54.1626 22.944 55.0059 23.6033 55.6193 24.462C56.2326 25.3207 56.5393 26.302 56.5393 27.406C56.5393 28.602 56.1559 29.6907 55.3893 30.672C54.6226 31.6533 53.4879 32.4353 51.9853 33.018C50.5133 33.6007 48.7346 33.892 46.6493 33.892C45.8826 33.892 45.0699 33.8613 44.2113 33.8C43.3833 33.7387 42.6319 33.662 41.9573 33.57C41.3133 33.478 40.8993 33.4167 40.7153 33.386L40.9453 31.914C41.4666 32.1287 42.0339 32.2667 42.6473 32.328C43.2606 32.3587 44.0579 32.374 45.0393 32.374C46.6339 32.374 47.9219 32.1287 48.9033 31.638C49.8846 31.1167 50.6053 30.4267 51.0653 29.568C51.5253 28.7093 51.7553 27.7587 51.7553 26.716C51.7553 25.612 51.5099 24.738 51.0193 24.094C50.5593 23.45 49.8999 23.128 49.0413 23.128C48.3053 23.128 47.5999 23.404 46.9252 23.956C46.2813 24.4773 45.6679 25.3207 45.0853 26.486C44.5333 27.6207 44.0273 29.108 43.5673 30.948C43.1073 32.7573 42.7239 34.95 42.4173 37.526C42.2639 39.0287 42.4786 40.1327 43.0613 40.838C43.6746 41.5127 44.6713 41.85 46.0513 41.85C47.4926 41.85 48.9799 41.4667 50.5133 40.7C52.0466 39.9027 53.4879 38.4767 54.8373 36.422L55.8953 37.204C54.7606 39.136 53.3039 40.6847 51.5253 41.85C49.7466 42.9847 47.7226 43.552 45.4533 43.552ZM55.583 56.478L63.495 22.3H69.337L61.241 56.478H55.583ZM52.133 57.306V55.972H65.795V57.306H52.133ZM70.487 43.552C69.107 43.552 68.003 43.2607 67.175 42.678C66.347 42.0953 65.703 41.3133 65.243 40.332H64.921L66.071 35.87C66.0403 36.1767 66.0096 36.468 65.979 36.744C65.9483 36.9893 65.933 37.2193 65.933 37.434C65.933 38.6607 66.2703 39.7187 66.945 40.608C67.6196 41.4667 68.509 41.896 69.613 41.896C70.5943 41.896 71.4683 41.5433 72.235 40.838C73.0016 40.102 73.661 39.1513 74.213 37.986C74.765 36.8207 75.225 35.5633 75.593 34.214C75.961 32.8647 76.2216 31.5613 76.375 30.304C76.559 29.0467 76.651 27.9733 76.651 27.084C76.651 25.7347 76.467 24.7993 76.099 24.278C75.731 23.7567 75.179 23.496 74.443 23.496C73.7376 23.496 72.9096 23.7413 71.959 24.232C71.039 24.692 70.1496 25.474 69.291 26.578C68.4323 27.6513 67.727 29.0927 67.175 30.902L68.417 25.336H68.739C69.3523 24.4467 70.2263 23.634 71.361 22.898C72.4956 22.1313 73.799 21.748 75.271 21.748C76.6203 21.748 77.847 22.0853 78.951 22.76C80.0856 23.4347 81.0056 24.4007 81.711 25.658C82.4163 26.8847 82.769 28.3873 82.769 30.166C82.769 31.8833 82.4316 33.5393 81.757 35.134C81.0823 36.7287 80.1623 38.17 78.997 39.458C77.8316 40.7153 76.513 41.712 75.041 42.448C73.569 43.184 72.051 43.552 70.487 43.552ZM59.171 23.588V22.3H68.785V23.588H59.171ZM88.0518 43.552C87.0398 43.552 86.1658 43.1993 85.4298 42.494C84.7244 41.7887 84.3718 40.93 84.3718 39.918C84.3718 38.8447 84.7244 37.9553 85.4298 37.25C86.1658 36.5447 87.0398 36.192 88.0518 36.192C89.0944 36.192 89.9684 36.5447 90.6738 37.25C91.4098 37.9553 91.7778 38.8447 91.7778 39.918C91.7778 40.93 91.4098 41.7887 90.6738 42.494C89.9684 43.1993 89.0944 43.552 88.0518 43.552ZM99.3103 43L106.118 10.524H112.512L105.52 43H99.3103ZM94.2503 43V41.528H111.73V43H94.2503ZM99.8163 11.996V10.524H111.546V11.996H99.8163ZM133.121 35.88H140.941V37.04H133.121V35.88ZM133.121 39.16H140.941V40.34H133.121V39.16ZM133.141 42.46H141.881V43.74H133.141V42.46ZM130.861 28.26H141.781V31.68H140.441V29.56H132.161V31.68H130.861V28.26ZM136.381 33.5H137.781V43.14H136.381V33.5ZM133.661 32.54H141.281V33.84H133.661V44.6H132.241V33.9L133.541 32.54H133.661ZM135.541 26.2L136.981 26.48C135.841 30.54 133.861 33.86 131.161 36C130.941 35.72 130.401 35.16 130.081 34.9C132.721 32.98 134.561 29.88 135.541 26.2ZM137.621 30.16L139.041 30.52C138.561 31.56 138.021 32.68 137.601 33.44L136.441 33.1C136.861 32.3 137.381 31.04 137.621 30.16ZM123.741 27.56H130.801V28.94H123.741V27.56ZM125.761 33.4H130.281V42.16H125.761V40.84H128.961V34.74H125.761V33.4ZM126.101 28.22L127.541 28.44C126.921 32.64 125.881 36.58 124.021 39.2C123.861 38.86 123.441 38.12 123.161 37.78C124.761 35.52 125.621 31.98 126.101 28.22ZM125.141 33.4H126.401V43.72H125.141V33.4ZM155.101 27.6H156.481C156.061 30.84 155.081 34.08 151.581 35.82C151.421 35.5 151.001 35 150.681 34.76C153.941 33.26 154.761 30.34 155.101 27.6ZM151.421 30.46L152.161 29.42C154.241 30.12 156.741 31.36 158.061 32.28L157.341 33.46C156.001 32.48 153.501 31.16 151.421 30.46ZM159.821 27.06H161.241C161.241 27.06 161.241 27.5 161.221 27.7C161.021 32.42 160.821 34.2 160.321 34.78C160.001 35.16 159.661 35.3 159.121 35.36C158.641 35.4 157.701 35.38 156.761 35.34C156.741 34.92 156.601 34.34 156.381 33.98C157.301 34.06 158.141 34.06 158.461 34.06C158.781 34.08 158.961 34.02 159.101 33.86C159.461 33.44 159.661 31.84 159.821 27.32V27.06ZM153.681 37.72H155.081V42.54C155.081 43.04 155.161 43.12 155.721 43.12C155.981 43.12 157.281 43.12 157.601 43.12C158.141 43.12 158.221 42.84 158.281 40.84C158.561 41.08 159.161 41.28 159.561 41.4C159.401 43.84 159.021 44.46 157.761 44.46C157.441 44.46 155.861 44.46 155.541 44.46C154.021 44.46 153.681 44.04 153.681 42.56V37.72ZM151.781 38.4L153.001 38.7C152.781 40.48 152.361 42.42 151.301 43.54L150.181 42.8C151.141 41.82 151.581 40.06 151.781 38.4ZM154.021 35.88L154.901 35C156.221 35.7 157.761 36.78 158.501 37.62L157.561 38.64C156.841 37.8 155.321 36.64 154.021 35.88ZM158.681 38.54L159.921 38.04C161.001 39.5 161.901 41.46 162.201 42.82L160.861 43.38C160.601 42.02 159.721 40 158.681 38.54ZM151.601 27.06H160.441V28.36H151.601V27.06ZM144.361 32.26H150.041V33.46H144.361V32.26ZM144.441 26.92H149.961V28.12H144.441V26.92ZM144.361 34.94H150.041V36.14H144.361V34.94ZM143.461 29.54H150.601V30.78H143.461V29.54ZM145.021 37.64H150.041V43.48H145.021V42.22H148.741V38.88H145.021V37.64ZM144.341 37.64H145.621V44.4H144.341V37.64ZM165.121 27.44H170.861V39.38H165.121V37.98H169.461V28.82H165.121V27.44ZM165.141 32.62H170.061V33.98H165.141V32.62ZM173.581 27.06H180.321V28.46H173.581V27.06ZM173.581 31.92H180.321V33.3H173.581V31.92ZM173.461 36.84H180.281V38.2H173.461V36.84ZM164.301 27.44H165.701V41.24H164.301V27.44ZM179.761 27.06H181.261V42.64C181.261 43.58 181.021 44.04 180.381 44.3C179.741 44.54 178.641 44.56 176.921 44.56C176.841 44.16 176.601 43.5 176.381 43.1C177.661 43.14 178.921 43.12 179.281 43.12C179.641 43.1 179.761 42.98 179.761 42.62V27.06ZM172.701 27.06H174.181V34.2C174.181 37.56 173.681 41.98 170.081 44.74C169.861 44.44 169.301 43.92 168.981 43.72C172.361 41.12 172.701 37.32 172.701 34.2V27.06ZM195.781 28.42H197.121V42.72H195.781V28.42ZM191.821 27.8H201.281V44.2H199.881V29.2H193.181V44.36H191.821V27.8ZM192.561 34.74H200.501V36.12H192.561V34.74ZM192.561 41.88H200.441V43.26H192.561V41.88ZM186.841 35.62H188.181V44.58H186.841V35.62ZM186.641 26.2L187.981 26.74C187.221 28.22 186.241 30 185.461 31.12L184.401 30.64C185.181 29.48 186.121 27.54 186.641 26.2ZM189.101 28.5L190.381 29.12C188.981 31.34 187.001 34.18 185.461 35.9L184.521 35.36C186.061 33.6 188.001 30.62 189.101 28.5ZM183.441 30.48L184.201 29.48C185.281 30.38 186.521 31.66 187.061 32.52L186.261 33.68C185.741 32.76 184.501 31.4 183.441 30.48ZM188.541 33.08L189.681 32.58C190.561 33.88 191.441 35.6 191.781 36.72L190.581 37.3C190.261 36.18 189.401 34.4 188.541 33.08ZM183.301 35.04C185.121 34.94 187.821 34.76 190.501 34.56L190.521 35.78C188.021 36 185.461 36.24 183.521 36.42L183.301 35.04ZM188.901 37.92L190.061 37.56C190.641 38.78 191.201 40.38 191.441 41.44L190.181 41.86C190.001 40.8 189.461 39.16 188.901 37.92ZM184.541 37.62L185.841 37.86C185.581 39.74 185.101 41.68 184.481 42.96C184.221 42.8 183.621 42.52 183.281 42.4C183.941 41.18 184.321 39.38 184.541 37.62Z" fill="#90957A"/>
<path d="M521.9 43.552C519.723 43.552 518.021 43.1073 516.794 42.218C515.567 41.3287 514.954 40.24 514.954 38.952C514.954 38.0627 515.215 37.4033 515.736 36.974C516.288 36.514 516.932 36.284 517.668 36.284C518.465 36.284 519.063 36.514 519.462 36.974C519.891 37.434 520.106 37.94 520.106 38.492C520.106 39.0133 519.983 39.4273 519.738 39.734C519.493 40.0407 519.37 40.378 519.37 40.746C519.37 41.0833 519.585 41.39 520.014 41.666C520.474 41.9113 521.256 42.034 522.36 42.034C523.985 42.034 525.151 41.758 525.856 41.206C526.592 40.6233 526.96 39.964 526.96 39.228C526.96 38.492 526.669 37.8327 526.086 37.25C525.503 36.6673 524.767 36.1153 523.878 35.594C523.019 35.042 522.145 34.4593 521.256 33.846C520.367 33.202 519.631 32.4507 519.048 31.592C518.465 30.7333 518.174 29.6907 518.174 28.464C518.174 27.268 518.496 26.1793 519.14 25.198C519.815 24.186 520.735 23.3887 521.9 22.806C523.096 22.1927 524.476 21.886 526.04 21.886C527.205 21.886 528.233 22.0547 529.122 22.392C530.011 22.7293 530.717 23.1893 531.238 23.772C531.79 24.3547 532.066 25.0293 532.066 25.796C532.066 26.44 531.851 26.992 531.422 27.452C531.023 27.912 530.441 28.142 529.674 28.142C528.969 28.142 528.417 27.958 528.018 27.59C527.65 27.1913 527.466 26.7313 527.466 26.21C527.466 25.8113 527.527 25.474 527.65 25.198C527.803 24.922 527.88 24.646 527.88 24.37C527.88 23.9407 527.65 23.6493 527.19 23.496C526.761 23.312 526.239 23.22 525.626 23.22C524.737 23.22 523.924 23.404 523.188 23.772C522.452 24.14 522.084 24.7073 522.084 25.474C522.084 26.1487 522.375 26.762 522.958 27.314C523.571 27.8353 524.323 28.3567 525.212 28.878C526.101 29.3993 526.975 29.9973 527.834 30.672C528.723 31.316 529.459 32.098 530.042 33.018C530.655 33.9073 530.962 35.0113 530.962 36.33C530.962 37.7407 530.563 38.998 529.766 40.102C528.969 41.1753 527.88 42.0187 526.5 42.632C525.151 43.2453 523.617 43.552 521.9 43.552ZM539.314 43.552C537.934 43.552 536.937 43.2147 536.324 42.54C535.71 41.8653 535.404 41.0527 535.404 40.102C535.404 39.734 535.434 39.32 535.496 38.86C535.588 38.3693 535.664 37.9553 535.726 37.618L540.556 16.78H546.306L541.062 38.86C540.97 39.2587 540.908 39.5807 540.878 39.826C540.847 40.0713 540.832 40.24 540.832 40.332C540.832 40.976 541.154 41.298 541.798 41.298C542.442 41.298 543.208 40.8993 544.098 40.102C545.018 39.3047 545.968 37.8787 546.95 35.824L548.008 36.238C547.425 37.71 546.674 38.998 545.754 40.102C544.864 41.1753 543.868 42.0187 542.764 42.632C541.69 43.2453 540.54 43.552 539.314 43.552ZM536.14 23.588V22.3H549.296V23.588H536.14ZM559.453 43.552C557.46 43.552 555.773 43.138 554.393 42.31C553.013 41.4513 551.955 40.3473 551.219 38.998C550.483 37.6487 550.115 36.2073 550.115 34.674C550.115 33.0487 550.483 31.4693 551.219 29.936C551.955 28.4027 552.952 27.0227 554.209 25.796C555.467 24.5387 556.893 23.5573 558.487 22.852C560.082 22.116 561.723 21.748 563.409 21.748C564.789 21.748 566.016 21.9933 567.089 22.484C568.163 22.944 569.006 23.6033 569.619 24.462C570.233 25.3207 570.539 26.302 570.539 27.406C570.539 28.602 570.156 29.6907 569.389 30.672C568.623 31.6533 567.488 32.4353 565.985 33.018C564.513 33.6007 562.735 33.892 560.649 33.892C559.883 33.892 559.07 33.8613 558.211 33.8C557.383 33.7387 556.632 33.662 555.957 33.57C555.313 33.478 554.899 33.4167 554.715 33.386L554.945 31.914C555.467 32.1287 556.034 32.2667 556.647 32.328C557.261 32.3587 558.058 32.374 559.039 32.374C560.634 32.374 561.922 32.1287 562.903 31.638C563.885 31.1167 564.605 30.4267 565.065 29.568C565.525 28.7093 565.755 27.7587 565.755 26.716C565.755 25.612 565.51 24.738 565.019 24.094C564.559 23.45 563.9 23.128 563.041 23.128C562.305 23.128 561.6 23.404 560.925 23.956C560.281 24.4773 559.668 25.3207 559.085 26.486C558.533 27.6207 558.027 29.108 557.567 30.948C557.107 32.7573 556.724 34.95 556.417 37.526C556.264 39.0287 556.479 40.1327 557.061 40.838C557.675 41.5127 558.671 41.85 560.051 41.85C561.493 41.85 562.98 41.4667 564.513 40.7C566.047 39.9027 567.488 38.4767 568.837 36.422L569.895 37.204C568.761 39.136 567.304 40.6847 565.525 41.85C563.747 42.9847 561.723 43.552 559.453 43.552ZM569.583 56.478L577.495 22.3H583.337L575.241 56.478H569.583ZM566.133 57.306V55.972H579.795V57.306H566.133ZM584.487 43.552C583.107 43.552 582.003 43.2607 581.175 42.678C580.347 42.0953 579.703 41.3133 579.243 40.332H578.921L580.071 35.87C580.04 36.1767 580.01 36.468 579.979 36.744C579.948 36.9893 579.933 37.2193 579.933 37.434C579.933 38.6607 580.27 39.7187 580.945 40.608C581.62 41.4667 582.509 41.896 583.613 41.896C584.594 41.896 585.468 41.5433 586.235 40.838C587.002 40.102 587.661 39.1513 588.213 37.986C588.765 36.8207 589.225 35.5633 589.593 34.214C589.961 32.8647 590.222 31.5613 590.375 30.304C590.559 29.0467 590.651 27.9733 590.651 27.084C590.651 25.7347 590.467 24.7993 590.099 24.278C589.731 23.7567 589.179 23.496 588.443 23.496C587.738 23.496 586.91 23.7413 585.959 24.232C585.039 24.692 584.15 25.474 583.291 26.578C582.432 27.6513 581.727 29.0927 581.175 30.902L582.417 25.336H582.739C583.352 24.4467 584.226 23.634 585.361 22.898C586.496 22.1313 587.799 21.748 589.271 21.748C590.62 21.748 591.847 22.0853 592.951 22.76C594.086 23.4347 595.006 24.4007 595.711 25.658C596.416 26.8847 596.769 28.3873 596.769 30.166C596.769 31.8833 596.432 33.5393 595.757 35.134C595.082 36.7287 594.162 38.17 592.997 39.458C591.832 40.7153 590.513 41.712 589.041 42.448C587.569 43.184 586.051 43.552 584.487 43.552ZM573.171 23.588V22.3H582.785V23.588H573.171ZM602.052 43.552C601.04 43.552 600.166 43.1993 599.43 42.494C598.724 41.7887 598.372 40.93 598.372 39.918C598.372 38.8447 598.724 37.9553 599.43 37.25C600.166 36.5447 601.04 36.192 602.052 36.192C603.094 36.192 603.968 36.5447 604.674 37.25C605.41 37.9553 605.778 38.8447 605.778 39.918C605.778 40.93 605.41 41.7887 604.674 42.494C603.968 43.1993 603.094 43.552 602.052 43.552ZM608.618 43L609.492 39.274L619.336 31.454C621.391 29.8593 623.001 28.326 624.166 26.854C625.332 25.3513 626.16 23.8793 626.65 22.438C627.141 20.966 627.386 19.5093 627.386 18.068C627.386 15.9827 626.972 14.4493 626.144 13.468C625.347 12.4867 624.212 11.996 622.74 11.996C621.575 11.996 620.517 12.2567 619.566 12.778C618.616 13.2993 617.864 13.8973 617.312 14.572C616.76 15.216 616.484 15.768 616.484 16.228C616.484 16.6573 616.699 16.964 617.128 17.148C617.558 17.3013 618.048 17.4547 618.6 17.608C619.183 17.7613 619.689 18.0373 620.118 18.436C620.548 18.804 620.762 19.402 620.762 20.23C620.762 21.1807 620.456 21.932 619.842 22.484C619.229 23.0053 618.508 23.266 617.68 23.266C617.22 23.266 616.684 23.1433 616.07 22.898C615.488 22.6527 614.951 22.2233 614.46 21.61C614 20.9967 613.77 20.138 613.77 19.034C613.77 17.6847 614.154 16.366 614.92 15.078C615.687 13.7593 616.837 12.6707 618.37 11.812C619.934 10.9533 621.882 10.524 624.212 10.524C626.144 10.524 627.877 10.846 629.41 11.49C630.974 12.134 632.201 13.054 633.09 14.25C633.98 15.4153 634.424 16.8107 634.424 18.436C634.424 20 633.888 21.5947 632.814 23.22C631.741 24.8453 629.824 26.6087 627.064 28.51L614.552 37.434V37.618H627.202C627.785 37.618 628.26 37.526 628.628 37.342C628.996 37.158 629.318 36.7747 629.594 36.192C629.87 35.5787 630.146 34.6587 630.422 33.432H631.802L629.364 43H608.618ZM650.499 27.88H662.579V29.14H650.499V27.88ZM649.939 39.56H662.839V40.84H649.939V39.56ZM655.759 26.2H657.219V31.18H655.759V26.2ZM653.459 33.82V35.1H659.599V33.82H653.459ZM653.459 36.1V37.38H659.599V36.1H653.459ZM653.459 31.6V32.84H659.599V31.6H653.459ZM652.079 30.56H661.039V38.42H652.079V30.56ZM657.579 41.86L658.619 41.1C660.199 41.96 661.939 43.04 662.979 43.86L661.599 44.62C660.679 43.82 659.079 42.72 657.579 41.86ZM653.899 41.16L655.299 41.64C654.059 42.82 652.119 43.94 650.479 44.64C650.239 44.36 649.679 43.82 649.359 43.58C651.019 43 652.819 42.1 653.899 41.16ZM644.659 31.1H650.559V32.52H644.659V31.1ZM646.999 26.46H648.419V39.5H646.999V26.46ZM644.279 39.92C645.899 39.32 648.339 38.28 650.699 37.28L651.039 38.68C648.919 39.66 646.619 40.66 644.859 41.42L644.279 39.92ZM672.839 26.22H674.339V28.68H672.839V26.22ZM665.119 27.82H682.119V31.38H680.699V29.14H666.499V31.38H665.119V27.82ZM672.159 29.78L673.119 30.76C671.799 31.3 669.999 31.76 668.479 32.04C668.419 31.78 668.239 31.36 668.099 31.1C669.519 30.74 671.199 30.24 672.159 29.78ZM667.559 30.8L668.919 31.1V36.38H667.559V30.8ZM667.559 35.68H678.379V31.9H674.199V30.8H679.759V36.8H667.559V35.68ZM668.039 33.24H672.759V34.32H668.039V33.24ZM674.499 33.24H679.079V34.32H674.499V33.24ZM670.319 36.2L671.659 36.6C670.279 38.78 667.799 40.56 665.379 41.66C665.199 41.36 664.759 40.74 664.479 40.46C666.799 39.56 669.119 38.04 670.319 36.2ZM669.459 38.1H680.559V39.32H668.219L669.459 38.1ZM680.079 38.1H681.559C681.559 38.1 681.539 38.5 681.519 38.7C681.299 42.16 681.059 43.52 680.579 44.04C680.219 44.4 679.859 44.52 679.299 44.56C678.799 44.6 677.839 44.58 676.839 44.54C676.819 44.14 676.659 43.58 676.419 43.22C677.399 43.3 678.319 43.32 678.639 43.3C678.999 43.32 679.179 43.3 679.339 43.14C679.679 42.78 679.879 41.54 680.079 38.3V38.1ZM667.819 40.12L669.019 40.5C668.719 41.92 668.159 43.46 667.059 44.36L665.959 43.68C666.939 42.88 667.519 41.44 667.819 40.12ZM670.199 40.46L671.379 40.32C671.799 41.44 672.119 42.88 672.119 43.8L670.879 43.98C670.899 43.06 670.619 41.6 670.199 40.46ZM673.019 40.36L674.119 40.06C674.739 41 675.299 42.28 675.459 43.1L674.319 43.46C674.159 42.62 673.619 41.34 673.019 40.36ZM675.799 40.26L676.799 39.78C677.499 40.42 678.239 41.32 678.559 41.98L677.499 42.5C677.219 41.86 676.479 40.9 675.799 40.26ZM692.579 27.98H702.839V29.42H692.579V27.98ZM697.519 28.58H699.019V42.64C699.019 43.66 698.779 44.1 698.119 44.34C697.459 44.6 696.319 44.62 694.559 44.62C694.499 44.2 694.239 43.54 694.019 43.08C695.379 43.14 696.639 43.14 697.019 43.12C697.399 43.12 697.519 43 697.519 42.64V28.58ZM685.319 32.26H691.559V33.46H685.319V32.26ZM685.439 26.92H691.579V28.12H685.439V26.92ZM685.319 34.94H691.559V36.14H685.319V34.94ZM684.379 29.54H692.339V30.78H684.379V29.54ZM686.019 37.64H691.499V43.48H686.019V42.22H690.159V38.88H686.019V37.64ZM685.299 37.64H686.639V44.4H685.299V37.64ZM711.759 27.94H722.319V29.08H711.759V27.94ZM711.299 32.72H722.739V33.86H711.299V32.72ZM711.239 40.14H722.819V41.3H711.239V40.14ZM712.279 30.28H721.979V31.4H712.279V30.28ZM714.199 26.22H715.539V33.18H714.199V26.22ZM718.519 26.22H719.859V33.18H718.519V26.22ZM716.319 33.22H717.659V40.5H716.319V33.22ZM720.239 35.02H721.619V43.04C721.619 43.78 721.459 44.16 720.939 44.38C720.379 44.6 719.459 44.58 718.019 44.58C717.959 44.24 717.779 43.72 717.599 43.36C718.639 43.4 719.619 43.4 719.879 43.38C720.159 43.36 720.239 43.3 720.239 43.04V35.02ZM712.519 35.02H720.839V36.16H713.879V44.62H712.519V35.02ZM713.219 37.6H720.799V38.64H713.219V37.6ZM706.259 39.98L707.619 40.3C707.139 41.94 706.299 43.56 705.379 44.62C705.119 44.42 704.559 44.02 704.239 43.82C705.139 42.86 705.879 41.44 706.259 39.98ZM708.779 40.48L709.899 39.96C710.559 40.94 711.279 42.24 711.579 43.06L710.379 43.64C710.079 42.8 709.399 41.46 708.779 40.48ZM706.579 31.96V34.54H709.579V31.96H706.579ZM706.579 35.7V38.32H709.579V35.7H706.579ZM706.579 28.22V30.78H709.579V28.22H706.579ZM705.259 26.96H710.919V39.56H705.259V26.96ZM725.539 27.68L726.199 26.66C727.579 27.02 729.439 27.7 730.399 28.2L729.739 29.36C728.799 28.84 726.939 28.12 725.539 27.68ZM724.539 31.9C725.979 31.56 728.099 30.96 730.179 30.38L730.339 31.56C728.519 32.14 726.639 32.76 725.119 33.22L724.539 31.9ZM733.119 27.68H741.159V28.82H732.239L733.119 27.68ZM740.759 27.68H740.999L741.259 27.62L742.259 27.92C741.699 28.96 740.959 30.08 740.239 30.78L739.039 30.36C739.679 29.74 740.359 28.74 740.759 27.9V27.68ZM735.599 28.08H736.979C736.559 30.92 735.279 32.48 731.199 33.3C731.059 32.98 730.739 32.48 730.479 32.22C734.179 31.6 735.259 30.36 735.599 28.08ZM736.919 28.44C737.319 30.14 738.299 31.78 742.739 32.42C742.459 32.72 742.119 33.26 741.959 33.64C737.219 32.82 736.219 30.66 735.699 28.56L736.919 28.44ZM733.439 26.2L734.799 26.42C734.119 27.88 733.099 29.36 731.539 30.56C731.279 30.28 730.759 29.96 730.399 29.8C731.899 28.78 732.919 27.4 733.439 26.2ZM728.679 36.66V38.02H738.759V36.66H728.679ZM728.679 39V40.4H738.759V39H728.679ZM728.679 34.32V35.68H738.759V34.32H728.679ZM727.219 33.32H740.259V41.4H727.219V33.32ZM735.279 42.42L736.499 41.66C738.699 42.34 741.119 43.22 742.559 43.9L740.899 44.66C739.639 44 737.459 43.14 735.279 42.42ZM730.579 41.62L731.939 42.24C730.319 43.2 727.779 44.12 725.779 44.68C725.539 44.38 725.019 43.8 724.679 43.54C726.739 43.1 729.139 42.4 730.579 41.62ZM747.779 26.28H749.179V44.58H747.779V26.28ZM744.559 32.92H752.459V34.34H744.559V32.92ZM747.559 33.66L748.459 34.06C747.759 36.78 746.339 40.24 744.999 42.06C744.839 41.62 744.479 40.98 744.239 40.58C745.519 39.04 746.919 36 747.559 33.66ZM749.139 34.6C749.699 35.2 751.739 37.92 752.199 38.58L751.199 39.78C750.699 38.7 749.059 36.08 748.399 35.22L749.139 34.6ZM744.699 27.76L745.799 27.48C746.359 28.88 746.819 30.7 746.959 31.9L745.779 32.22C745.679 31.02 745.219 29.16 744.699 27.76ZM751.159 27.4L752.479 27.74C751.959 29.26 751.339 31.14 750.799 32.26L749.839 31.96C750.279 30.76 750.879 28.76 751.159 27.4ZM758.919 26.22H760.339V44.6H758.919V26.22ZM752.419 38.94L762.699 37.1L762.939 38.48L752.659 40.34L752.419 38.94ZM753.919 28.66L754.699 27.64C755.859 28.32 757.239 29.34 757.899 30.08L757.099 31.24C756.459 30.46 755.079 29.38 753.919 28.66ZM752.899 33.7L753.599 32.64C754.799 33.26 756.279 34.2 756.999 34.92L756.239 36.1C755.539 35.38 754.099 34.36 752.899 33.7Z" fill="#90957A"/>
<path d="M1042.9 43.552C1040.72 43.552 1039.02 43.1073 1037.79 42.218C1036.57 41.3287 1035.95 40.24 1035.95 38.952C1035.95 38.0627 1036.21 37.4033 1036.74 36.974C1037.29 36.514 1037.93 36.284 1038.67 36.284C1039.47 36.284 1040.06 36.514 1040.46 36.974C1040.89 37.434 1041.11 37.94 1041.11 38.492C1041.11 39.0133 1040.98 39.4273 1040.74 39.734C1040.49 40.0407 1040.37 40.378 1040.37 40.746C1040.37 41.0833 1040.58 41.39 1041.01 41.666C1041.47 41.9113 1042.26 42.034 1043.36 42.034C1044.99 42.034 1046.15 41.758 1046.86 41.206C1047.59 40.6233 1047.96 39.964 1047.96 39.228C1047.96 38.492 1047.67 37.8327 1047.09 37.25C1046.5 36.6673 1045.77 36.1153 1044.88 35.594C1044.02 35.042 1043.15 34.4593 1042.26 33.846C1041.37 33.202 1040.63 32.4507 1040.05 31.592C1039.47 30.7333 1039.17 29.6907 1039.17 28.464C1039.17 27.268 1039.5 26.1793 1040.14 25.198C1040.81 24.186 1041.73 23.3887 1042.9 22.806C1044.1 22.1927 1045.48 21.886 1047.04 21.886C1048.21 21.886 1049.23 22.0547 1050.12 22.392C1051.01 22.7293 1051.72 23.1893 1052.24 23.772C1052.79 24.3547 1053.07 25.0293 1053.07 25.796C1053.07 26.44 1052.85 26.992 1052.42 27.452C1052.02 27.912 1051.44 28.142 1050.67 28.142C1049.97 28.142 1049.42 27.958 1049.02 27.59C1048.65 27.1913 1048.47 26.7313 1048.47 26.21C1048.47 25.8113 1048.53 25.474 1048.65 25.198C1048.8 24.922 1048.88 24.646 1048.88 24.37C1048.88 23.9407 1048.65 23.6493 1048.19 23.496C1047.76 23.312 1047.24 23.22 1046.63 23.22C1045.74 23.22 1044.92 23.404 1044.19 23.772C1043.45 24.14 1043.08 24.7073 1043.08 25.474C1043.08 26.1487 1043.38 26.762 1043.96 27.314C1044.57 27.8353 1045.32 28.3567 1046.21 28.878C1047.1 29.3993 1047.98 29.9973 1048.83 30.672C1049.72 31.316 1050.46 32.098 1051.04 33.018C1051.66 33.9073 1051.96 35.0113 1051.96 36.33C1051.96 37.7407 1051.56 38.998 1050.77 40.102C1049.97 41.1753 1048.88 42.0187 1047.5 42.632C1046.15 43.2453 1044.62 43.552 1042.9 43.552ZM1060.31 43.552C1058.93 43.552 1057.94 43.2147 1057.32 42.54C1056.71 41.8653 1056.4 41.0527 1056.4 40.102C1056.4 39.734 1056.43 39.32 1056.5 38.86C1056.59 38.3693 1056.66 37.9553 1056.73 37.618L1061.56 16.78H1067.31L1062.06 38.86C1061.97 39.2587 1061.91 39.5807 1061.88 39.826C1061.85 40.0713 1061.83 40.24 1061.83 40.332C1061.83 40.976 1062.15 41.298 1062.8 41.298C1063.44 41.298 1064.21 40.8993 1065.1 40.102C1066.02 39.3047 1066.97 37.8787 1067.95 35.824L1069.01 36.238C1068.42 37.71 1067.67 38.998 1066.75 40.102C1065.86 41.1753 1064.87 42.0187 1063.76 42.632C1062.69 43.2453 1061.54 43.552 1060.31 43.552ZM1057.14 23.588V22.3H1070.3V23.588H1057.14ZM1080.45 43.552C1078.46 43.552 1076.77 43.138 1075.39 42.31C1074.01 41.4513 1072.96 40.3473 1072.22 38.998C1071.48 37.6487 1071.12 36.2073 1071.12 34.674C1071.12 33.0487 1071.48 31.4693 1072.22 29.936C1072.96 28.4027 1073.95 27.0227 1075.21 25.796C1076.47 24.5387 1077.89 23.5573 1079.49 22.852C1081.08 22.116 1082.72 21.748 1084.41 21.748C1085.79 21.748 1087.02 21.9933 1088.09 22.484C1089.16 22.944 1090.01 23.6033 1090.62 24.462C1091.23 25.3207 1091.54 26.302 1091.54 27.406C1091.54 28.602 1091.16 29.6907 1090.39 30.672C1089.62 31.6533 1088.49 32.4353 1086.99 33.018C1085.51 33.6007 1083.73 33.892 1081.65 33.892C1080.88 33.892 1080.07 33.8613 1079.21 33.8C1078.38 33.7387 1077.63 33.662 1076.96 33.57C1076.31 33.478 1075.9 33.4167 1075.72 33.386L1075.95 31.914C1076.47 32.1287 1077.03 32.2667 1077.65 32.328C1078.26 32.3587 1079.06 32.374 1080.04 32.374C1081.63 32.374 1082.92 32.1287 1083.9 31.638C1084.88 31.1167 1085.61 30.4267 1086.07 29.568C1086.53 28.7093 1086.76 27.7587 1086.76 26.716C1086.76 25.612 1086.51 24.738 1086.02 24.094C1085.56 23.45 1084.9 23.128 1084.04 23.128C1083.31 23.128 1082.6 23.404 1081.93 23.956C1081.28 24.4773 1080.67 25.3207 1080.09 26.486C1079.53 27.6207 1079.03 29.108 1078.57 30.948C1078.11 32.7573 1077.72 34.95 1077.42 37.526C1077.26 39.0287 1077.48 40.1327 1078.06 40.838C1078.67 41.5127 1079.67 41.85 1081.05 41.85C1082.49 41.85 1083.98 41.4667 1085.51 40.7C1087.05 39.9027 1088.49 38.4767 1089.84 36.422L1090.9 37.204C1089.76 39.136 1088.3 40.6847 1086.53 41.85C1084.75 42.9847 1082.72 43.552 1080.45 43.552ZM1090.58 56.478L1098.49 22.3H1104.34L1096.24 56.478H1090.58ZM1087.13 57.306V55.972H1100.79V57.306H1087.13ZM1105.49 43.552C1104.11 43.552 1103 43.2607 1102.17 42.678C1101.35 42.0953 1100.7 41.3133 1100.24 40.332H1099.92L1101.07 35.87C1101.04 36.1767 1101.01 36.468 1100.98 36.744C1100.95 36.9893 1100.93 37.2193 1100.93 37.434C1100.93 38.6607 1101.27 39.7187 1101.94 40.608C1102.62 41.4667 1103.51 41.896 1104.61 41.896C1105.59 41.896 1106.47 41.5433 1107.23 40.838C1108 40.102 1108.66 39.1513 1109.21 37.986C1109.76 36.8207 1110.22 35.5633 1110.59 34.214C1110.96 32.8647 1111.22 31.5613 1111.37 30.304C1111.56 29.0467 1111.65 27.9733 1111.65 27.084C1111.65 25.7347 1111.47 24.7993 1111.1 24.278C1110.73 23.7567 1110.18 23.496 1109.44 23.496C1108.74 23.496 1107.91 23.7413 1106.96 24.232C1106.04 24.692 1105.15 25.474 1104.29 26.578C1103.43 27.6513 1102.73 29.0927 1102.17 30.902L1103.42 25.336H1103.74C1104.35 24.4467 1105.23 23.634 1106.36 22.898C1107.5 22.1313 1108.8 21.748 1110.27 21.748C1111.62 21.748 1112.85 22.0853 1113.95 22.76C1115.09 23.4347 1116.01 24.4007 1116.71 25.658C1117.42 26.8847 1117.77 28.3873 1117.77 30.166C1117.77 31.8833 1117.43 33.5393 1116.76 35.134C1116.08 36.7287 1115.16 38.17 1114 39.458C1112.83 40.7153 1111.51 41.712 1110.04 42.448C1108.57 43.184 1107.05 43.552 1105.49 43.552ZM1094.17 23.588V22.3H1103.78V23.588H1094.17ZM1123.05 43.552C1122.04 43.552 1121.17 43.1993 1120.43 42.494C1119.72 41.7887 1119.37 40.93 1119.37 39.918C1119.37 38.8447 1119.72 37.9553 1120.43 37.25C1121.17 36.5447 1122.04 36.192 1123.05 36.192C1124.09 36.192 1124.97 36.5447 1125.67 37.25C1126.41 37.9553 1126.78 38.8447 1126.78 39.918C1126.78 40.93 1126.41 41.7887 1125.67 42.494C1124.97 43.1993 1124.09 43.552 1123.05 43.552ZM1139.37 43.598C1137.35 43.598 1135.69 43.322 1134.4 42.77C1133.11 42.218 1132.16 41.4973 1131.55 40.608C1130.97 39.7187 1130.68 38.7833 1130.68 37.802C1130.68 36.8207 1130.92 35.9773 1131.41 35.272C1131.93 34.5667 1132.7 34.214 1133.71 34.214C1134.51 34.214 1135.17 34.4593 1135.69 34.95C1136.21 35.41 1136.47 36.0233 1136.47 36.79C1136.47 37.3727 1136.32 37.8327 1136.01 38.17C1135.74 38.4767 1135.41 38.722 1135.05 38.906C1134.68 39.09 1134.34 39.2587 1134.03 39.412C1133.76 39.5653 1133.62 39.7953 1133.62 40.102C1133.62 40.5007 1133.88 40.8687 1134.4 41.206C1134.95 41.5433 1135.63 41.8193 1136.43 42.034C1137.22 42.218 1138.02 42.31 1138.82 42.31C1139.98 42.31 1141.01 42.08 1141.9 41.62C1142.82 41.1293 1143.6 40.47 1144.25 39.642C1144.89 38.7833 1145.37 37.756 1145.67 36.56C1146.01 35.364 1146.18 34.0453 1146.18 32.604C1146.18 30.396 1145.75 28.8167 1144.89 27.866C1144.06 26.9153 1142.74 26.44 1140.93 26.44C1140.54 26.44 1140.21 26.486 1139.97 26.578C1139.75 26.6393 1139.55 26.7007 1139.37 26.762C1139.19 26.8233 1138.94 26.854 1138.63 26.854C1138.11 26.854 1137.74 26.7467 1137.53 26.532C1137.32 26.3173 1137.21 26.072 1137.21 25.796C1137.21 25.428 1137.33 25.152 1137.58 24.968C1137.85 24.7533 1138.14 24.646 1138.45 24.646C1138.7 24.646 1139.06 24.692 1139.55 24.784C1140.04 24.876 1140.57 24.922 1141.12 24.922C1142.34 24.922 1143.4 24.6153 1144.29 24.002C1145.21 23.358 1145.98 22.5607 1146.59 21.61C1147.21 20.6593 1147.65 19.6473 1147.93 18.574C1148.23 17.47 1148.39 16.458 1148.39 15.538C1148.39 14.1273 1148.03 13.1153 1147.33 12.502C1146.65 11.8887 1145.66 11.582 1144.34 11.582C1143.2 11.582 1142.28 11.766 1141.58 12.134C1140.87 12.502 1140.52 12.9773 1140.52 13.56C1140.52 13.928 1140.64 14.2193 1140.89 14.434C1141.13 14.6487 1141.38 14.8787 1141.62 15.124C1141.87 15.3693 1141.99 15.7527 1141.99 16.274C1141.99 16.9793 1141.73 17.5927 1141.21 18.114C1140.72 18.6047 1140.08 18.85 1139.28 18.85C1138.63 18.85 1138.04 18.6353 1137.48 18.206C1136.93 17.7767 1136.66 17.0867 1136.66 16.136C1136.66 15.032 1137.04 14.0507 1137.81 13.192C1138.6 12.3027 1139.69 11.5973 1141.07 11.076C1142.45 10.5547 1143.99 10.294 1145.67 10.294C1147.6 10.294 1149.21 10.6007 1150.5 11.214C1151.82 11.8273 1152.8 12.64 1153.45 13.652C1154.09 14.664 1154.41 15.7373 1154.41 16.872C1154.41 18.6507 1153.61 20.322 1152.02 21.886C1150.43 23.4193 1148.09 24.6153 1145.03 25.474V25.704C1146.41 25.704 1147.71 26.0413 1148.94 26.716C1150.2 27.3907 1151.22 28.3107 1152.02 29.476C1152.82 30.6413 1153.22 31.9753 1153.22 33.478C1153.22 34.7967 1152.88 36.0693 1152.2 37.296C1151.53 38.492 1150.56 39.5653 1149.31 40.516C1148.08 41.4667 1146.62 42.218 1144.94 42.77C1143.25 43.322 1141.39 43.598 1139.37 43.598ZM1173.79 32.02H1184.67V33.38H1173.79V32.02ZM1170.37 35.7H1188.11V37.12H1170.37V35.7ZM1175.63 36.68H1177.23C1176.81 40.58 1175.69 43.28 1170.81 44.64C1170.65 44.26 1170.25 43.66 1169.93 43.36C1174.43 42.24 1175.29 39.94 1175.63 36.68ZM1180.69 36.56H1182.19V42.18C1182.19 42.78 1182.33 42.88 1183.17 42.88C1183.57 42.88 1185.47 42.88 1185.99 42.88C1186.75 42.88 1186.89 42.52 1186.95 40.22C1187.27 40.46 1187.91 40.7 1188.31 40.82C1188.15 43.56 1187.71 44.26 1186.11 44.26C1185.71 44.26 1183.41 44.26 1183.01 44.26C1181.17 44.26 1180.69 43.8 1180.69 42.2V36.56ZM1178.41 26.22H1179.99V29.4H1178.41V26.22ZM1170.83 28.36H1187.65V32.6H1186.07V29.78H1172.35V32.6H1170.83V28.36ZM1192.65 33.7H1197.63V35.1H1192.65V33.7ZM1197.03 33.7H1198.49C1198.49 33.7 1198.49 34.14 1198.49 34.34C1198.39 38.86 1198.27 40.54 1197.85 41.1C1197.53 41.46 1197.21 41.6 1196.65 41.66C1196.13 41.72 1195.23 41.7 1194.25 41.66C1194.21 41.22 1194.05 40.64 1193.83 40.26C1194.73 40.34 1195.61 40.34 1195.95 40.34C1196.23 40.34 1196.43 40.32 1196.57 40.14C1196.87 39.78 1196.97 38.28 1197.03 33.96V33.7ZM1202.67 27.22L1203.57 26.28C1204.81 26.92 1206.39 27.88 1207.17 28.58L1206.23 29.6C1205.47 28.9 1203.93 27.88 1202.67 27.22ZM1205.53 32.64L1207.03 33C1205.33 38.22 1202.35 42.08 1198.25 44.5C1198.03 44.2 1197.47 43.58 1197.15 43.28C1201.21 41.12 1204.03 37.46 1205.53 32.64ZM1192.77 29.6H1208.25V31.08H1192.77V29.6ZM1191.81 29.6H1193.37V35.24C1193.37 38.08 1193.05 42.12 1191.23 44.74C1190.97 44.44 1190.33 43.92 1189.97 43.74C1191.63 41.28 1191.81 37.84 1191.81 35.22V29.6ZM1200.11 26.24H1201.67C1201.63 35.44 1203.59 42.94 1206.19 42.94C1206.75 42.94 1207.01 41.9 1207.13 39.24C1207.47 39.58 1208.03 39.92 1208.43 40.06C1208.15 43.48 1207.59 44.46 1206.07 44.46C1201.99 44.46 1200.19 35.82 1200.11 26.24ZM1218.21 27.98H1228.47V29.42H1218.21V27.98ZM1223.15 28.58H1224.65V42.64C1224.65 43.66 1224.41 44.1 1223.75 44.34C1223.09 44.6 1221.95 44.62 1220.19 44.62C1220.13 44.2 1219.87 43.54 1219.65 43.08C1221.01 43.14 1222.27 43.14 1222.65 43.12C1223.03 43.12 1223.15 43 1223.15 42.64V28.58ZM1210.95 32.26H1217.19V33.46H1210.95V32.26ZM1211.07 26.92H1217.21V28.12H1211.07V26.92ZM1210.95 34.94H1217.19V36.14H1210.95V34.94ZM1210.01 29.54H1217.97V30.78H1210.01V29.54ZM1211.65 37.64H1217.13V43.48H1211.65V42.22H1215.79V38.88H1211.65V37.64ZM1210.93 37.64H1212.27V44.4H1210.93V37.64ZM1238.41 32.6H1239.95V44.6H1238.41V32.6ZM1233.87 35.98V37.72H1244.75V35.98H1233.87ZM1233.87 33.12V34.82H1244.75V33.12H1233.87ZM1232.41 31.9H1246.27V38.92H1232.41V31.9ZM1230.39 40.46H1248.13V41.78H1230.39V40.46ZM1233.23 28V29.9H1237.07V28H1233.23ZM1231.87 27H1238.47V30.9H1231.87V27ZM1241.45 28V29.9H1245.33V28H1241.45ZM1240.09 27H1246.75V30.9H1240.09V27Z" fill="#90957A"/>
<line x1="310" y1="36.5" x2="478" y2="36.5" stroke="#90957A"/>
<line x1="831" y1="36.5" x2="999" y2="36.5" stroke="#90957A"/>
</svg>
